<?xml version="1.0" encoding="UTF-8"?>
<svg width="185px" height="185px" viewBox="0 0 185 185" version="1.1" xmlns="http://www.w3.org/2000/svg" xmlns:xlink="http://www.w3.org/1999/xlink">
    <title>Group 10</title>
    <defs>
        <polygon id="path-1" points="0 0 184.9996 0 184.9996 184.9994 0 184.9994"></polygon>
    </defs>
    <g id="About-Pg" stroke="none" stroke-width="1" fill="none" fill-rule="evenodd">
        <g id="About-Pg-1440-Large-Desktop" transform="translate(-1081.000000, -454.000000)">
            <g id="Group-29" transform="translate(186.000000, 454.000000)">
                <g id="Group-10" transform="translate(895.000000, -0.000000)">
                    <path d="M91.0891,98.367 C91.1171,98.396 91.1471,98.412 91.1721,98.435 C91.2421,98.498 91.3151,98.561 91.3941,98.614 C91.4471,98.649 91.5051,98.675 91.5611,98.705 C91.6191,98.736 91.6761,98.771 91.7381,98.796 C91.8051,98.824 91.8751,98.84 91.9441,98.86 C92.0001,98.877 92.0541,98.898 92.1111,98.909 C92.1931,98.924 92.2751,98.928 92.3571,98.934 C92.4031,98.937 92.4471,98.947 92.4931,98.947 C92.4991,98.947 92.5011,98.947 92.5041,98.947 C92.5501,98.947 92.5961,98.938 92.6431,98.934 C92.7261,98.928 92.8091,98.924 92.8911,98.908 C92.9191,98.902 92.9401,98.893 92.9641,98.887 C93.0681,98.862 93.1721,98.833 93.2731,98.792 C93.2821,98.787 93.2921,98.78 93.3031,98.775 C93.5211,98.68 93.7281,98.549 93.9071,98.371 C93.9191,98.36 93.9271,98.346 93.9381,98.335 C95.1511,97.101 96.2171,95.811 97.2461,94.563 C99.5431,91.777 101.5271,89.372 104.1771,88.815 C105.8641,88.463 107.6041,89.103 108.5161,90.41 C109.9591,92.48 109.3601,95.943 106.8731,99.915 C104.2711,104.07 101.8321,108.208 99.4741,112.209 C97.0671,116.292 94.7721,120.187 92.5001,123.785 C90.2291,120.188 87.9331,116.293 85.5271,112.211 C83.1691,108.209 80.7311,104.071 78.1281,99.915 C75.6401,95.943 75.0411,92.48 76.4851,90.41 C77.3981,89.102 79.1381,88.463 80.8231,88.815 C83.4731,89.372 85.4571,91.777 87.7541,94.563 C88.7771,95.804 89.8381,97.086 91.0441,98.315 C91.0601,98.332 91.0721,98.351 91.0891,98.367 Z" id="Fill-1" fill="#C8C8C8"></path>
                    <path d="M64.9269,145.8379 C43.0819,145.8379 39.7419,131.6399 39.3559,117.7509 C38.9869,104.4569 39.3529,64.2679 39.3569,63.8449 C39.3569,61.5879 41.5509,59.7509 44.2489,59.7509 C46.9479,59.7509 49.1419,61.5879 49.1419,63.8449 L49.1419,71.9689 L49.1419,86.5459 C49.1419,87.6499 50.0369,88.5459 51.1419,88.5459 C52.2459,88.5459 53.1419,87.6499 53.1419,86.5459 L53.1419,71.9689 L53.1419,63.8449 L53.1419,49.3479 C53.1419,47.0909 55.3359,45.2539 58.0339,45.2539 C60.7329,45.2539 62.9269,47.0909 62.9269,49.3479 L62.9269,57.7509 L62.9269,86.5459 C62.9269,87.6499 63.8229,88.5459 64.9269,88.5459 C66.0309,88.5459 66.9269,87.6499 66.9269,86.5459 L66.9269,57.7509 L66.9269,49.3479 L66.9269,43.2539 C66.9269,40.9969 69.1209,39.1599 71.8199,39.1599 C74.5179,39.1599 76.7119,40.9969 76.7119,43.2539 L76.7119,51.6569 L76.7119,60.3819 L76.7119,80.4029 C76.7119,81.5079 77.6079,82.4029 78.7119,82.4029 C79.8169,82.4029 80.7119,81.5079 80.7119,80.4029 L80.7119,60.3819 L80.7119,51.6569 C80.7119,49.3999 82.9059,47.5629 85.6049,47.5629 C88.3029,47.5629 90.4969,49.3999 90.4969,51.6569 L90.4969,91.6049 C88.0579,88.6539 85.4879,85.7079 81.6459,84.8999 C78.3659,84.2119 75.0519,85.4759 73.2049,88.1209 C71.7909,90.1479 70.1109,94.6499 74.7379,102.0379 C77.3119,106.1489 79.7369,110.2629 82.0819,114.2419 C84.8069,118.8659 87.4429,123.3339 90.1129,127.4549 C82.7489,138.4269 75.3309,145.8379 64.9269,145.8379" id="Fill-3" fill="#FFFFFF"></path>
                    <path d="M145.6456,117.751 C145.2576,131.64 141.9166,145.838 120.0736,145.838 C109.6696,145.838 102.2506,138.427 94.8876,127.456 C97.5586,123.334 100.1946,118.865 102.9196,114.24 C105.2646,110.262 107.6896,106.147 110.2636,102.038 C114.8906,94.65 113.2096,90.147 111.7966,88.122 C109.9496,85.476 106.6366,84.211 103.3546,84.9 C99.5096,85.709 96.9386,88.659 94.4976,91.612 L94.4976,51.715 C94.4976,51.696 94.5026,51.677 94.5026,51.657 C94.5026,49.399 96.6976,47.563 99.3956,47.563 C102.0936,47.563 104.2886,49.399 104.2886,51.657 L104.2886,60.382 L104.2886,80.403 C104.2886,81.508 105.1836,82.403 106.2886,82.403 C107.3926,82.403 108.2886,81.508 108.2886,80.403 L108.2886,60.382 L108.2886,51.657 L108.2886,43.254 C108.2886,40.997 110.4826,39.16 113.1806,39.16 C115.8786,39.16 118.0736,40.997 118.0736,43.254 L118.0736,49.348 L118.0736,57.751 L118.0736,86.546 C118.0736,87.65 118.9686,88.546 120.0736,88.546 C121.1776,88.546 122.0736,87.65 122.0736,86.546 L122.0736,57.751 L122.0736,49.348 C122.0736,47.091 124.2676,45.254 126.9656,45.254 C129.6646,45.254 131.8596,47.091 131.8596,49.348 L131.8596,63.845 L131.8596,71.969 L131.8596,86.546 C131.8596,87.65 132.7546,88.546 133.8596,88.546 C134.9636,88.546 135.8596,87.65 135.8596,86.546 L135.8596,71.969 L135.8596,63.845 C135.8596,61.588 138.0536,59.751 140.7516,59.751 C143.4506,59.751 145.6446,61.588 145.6446,63.863 C145.6486,64.268 146.0146,104.457 145.6456,117.751" id="Fill-5" fill="#FFFFFF"></path>
                    <g id="Group-9">
                        <mask id="mask-2" fill="white">
                            <use xlink:href="#path-1"></use>
                        </mask>
                        <g id="Clip-8"></g>
                        <path d="M145.6456,117.751 C145.2576,131.64 141.9166,145.838 120.0736,145.838 C109.6696,145.838 102.2506,138.427 94.8876,127.456 C97.5586,123.334 100.1946,118.865 102.9196,114.24 C105.2646,110.262 107.6896,106.147 110.2636,102.038 C114.8906,94.65 113.2096,90.147 111.7966,88.122 C109.9496,85.476 106.6366,84.211 103.3546,84.9 C99.5096,85.709 96.9386,88.659 94.4976,91.612 L94.4976,51.715 C94.4976,51.696 94.5026,51.677 94.5026,51.657 C94.5026,49.399 96.6976,47.563 99.3956,47.563 C102.0936,47.563 104.2886,49.399 104.2886,51.657 L104.2886,60.382 L104.2886,80.403 C104.2886,81.508 105.1836,82.403 106.2886,82.403 C107.3926,82.403 108.2886,81.508 108.2886,80.403 L108.2886,60.382 L108.2886,51.657 L108.2886,43.254 C108.2886,40.997 110.4826,39.16 113.1806,39.16 C115.8786,39.16 118.0736,40.997 118.0736,43.254 L118.0736,49.348 L118.0736,57.751 L118.0736,86.546 C118.0736,87.65 118.9686,88.546 120.0736,88.546 C121.1776,88.546 122.0736,87.65 122.0736,86.546 L122.0736,57.751 L122.0736,49.348 C122.0736,47.091 124.2676,45.254 126.9656,45.254 C129.6646,45.254 131.8596,47.091 131.8596,49.348 L131.8596,63.845 L131.8596,71.969 L131.8596,86.546 C131.8596,87.65 132.7546,88.546 133.8596,88.546 C134.9636,88.546 135.8596,87.65 135.8596,86.546 L135.8596,71.969 L135.8596,63.845 C135.8596,61.588 138.0536,59.751 140.7516,59.751 C143.4506,59.751 145.6446,61.588 145.6446,63.863 C145.6486,64.268 146.0146,104.457 145.6456,117.751 M64.9266,145.838 C43.0826,145.838 39.7426,131.64 39.3556,117.751 C38.9866,104.457 39.3526,64.268 39.3566,63.845 C39.3566,61.588 41.5506,59.751 44.2496,59.751 C46.9476,59.751 49.1416,61.588 49.1416,63.845 L49.1416,71.969 L49.1416,86.546 C49.1416,87.65 50.0376,88.546 51.1416,88.546 C52.2466,88.546 53.1416,87.65 53.1416,86.546 L53.1416,71.969 L53.1416,63.845 L53.1416,49.348 C53.1416,47.091 55.3356,45.254 58.0346,45.254 C60.7326,45.254 62.9266,47.091 62.9266,49.348 L62.9266,57.751 L62.9266,86.546 C62.9266,87.65 63.8226,88.546 64.9266,88.546 C66.0316,88.546 66.9266,87.65 66.9266,86.546 L66.9266,57.751 L66.9266,49.348 L66.9266,43.254 C66.9266,40.997 69.1216,39.16 71.8196,39.16 C74.5176,39.16 76.7116,40.997 76.7116,43.254 L76.7116,51.657 L76.7116,60.382 L76.7116,80.403 C76.7116,81.508 77.6076,82.403 78.7116,82.403 C79.8166,82.403 80.7116,81.508 80.7116,80.403 L80.7116,60.382 L80.7116,51.657 C80.7116,49.399 82.9066,47.563 85.6046,47.563 C88.3026,47.563 90.4976,49.399 90.4976,51.657 L90.4976,91.605 C88.0576,88.654 85.4876,85.708 81.6456,84.9 C78.3666,84.212 75.0516,85.476 73.2056,88.121 C71.7916,90.147 70.1106,94.65 74.7376,102.038 C77.3116,106.148 79.7366,110.263 82.0826,114.242 C84.8066,118.866 87.4426,123.334 90.1126,127.455 C82.7496,138.427 75.3316,145.838 64.9266,145.838 M91.0436,98.315 C91.0596,98.332 91.0726,98.351 91.0886,98.367 C91.0896,98.368 91.0906,98.37 91.0926,98.371 C91.1176,98.396 91.1466,98.412 91.1716,98.435 C91.2426,98.498 91.3146,98.561 91.3936,98.614 C91.4476,98.649 91.5046,98.675 91.5606,98.705 C91.6196,98.736 91.6756,98.771 91.7386,98.796 C91.8046,98.824 91.8746,98.84 91.9446,98.86 C91.9996,98.876 92.0536,98.897 92.1116,98.909 C92.1936,98.924 92.2756,98.928 92.3576,98.934 C92.4036,98.937 92.4476,98.947 92.4936,98.947 L92.4976,98.947 C92.4996,98.947 92.5006,98.947 92.5036,98.947 C92.5496,98.947 92.5956,98.938 92.6426,98.934 C92.7256,98.928 92.8086,98.924 92.8906,98.908 C92.8916,98.908 92.8936,98.908 92.8956,98.907 C92.9186,98.902 92.9406,98.893 92.9636,98.887 C93.0686,98.862 93.1716,98.833 93.2726,98.792 C93.2826,98.787 93.2916,98.78 93.3026,98.775 C93.5206,98.68 93.7276,98.549 93.9076,98.371 C93.9186,98.36 93.9266,98.346 93.9376,98.334 C95.1516,97.101 96.2166,95.811 97.2466,94.563 C99.5426,91.777 101.5276,89.372 104.1766,88.814 C105.8646,88.463 107.6036,89.103 108.5156,90.41 C109.9586,92.48 109.3606,95.943 106.8736,99.915 C104.2706,104.07 101.8326,108.208 99.4736,112.209 C97.0676,116.292 94.7716,120.187 92.4996,123.785 C90.2286,120.188 87.9326,116.293 85.5276,112.211 C83.1686,108.209 80.7306,104.071 78.1276,99.915 C75.6396,95.943 75.0416,92.48 76.4856,90.41 C77.3976,89.102 79.1376,88.463 80.8236,88.814 C83.4726,89.372 85.4576,91.777 87.7536,94.563 C88.7776,95.804 89.8376,97.086 91.0436,98.315 M149.6446,63.845 C149.6446,59.382 145.6556,55.751 140.7516,55.751 C138.9446,55.751 137.2636,56.247 135.8596,57.093 L135.8596,49.348 C135.8596,44.885 131.8706,41.254 126.9656,41.254 C125.1436,41.254 123.4496,41.757 122.0376,42.616 C121.6776,38.451 117.8466,35.16 113.1806,35.16 C108.2776,35.16 104.2886,38.791 104.2886,43.254 L104.2886,44.905 C102.8826,44.059 101.2026,43.563 99.3956,43.563 C96.6156,43.563 94.1316,44.731 92.4996,46.555 C90.8686,44.731 88.3836,43.563 85.6046,43.563 C83.7966,43.563 82.1166,44.059 80.7116,44.905 L80.7116,43.254 C80.7116,38.791 76.7226,35.16 71.8196,35.16 C67.1526,35.16 63.3226,38.451 62.9616,42.616 C61.5506,41.757 59.8556,41.254 58.0346,41.254 C53.1306,41.254 49.1416,44.885 49.1416,49.348 L49.1416,57.093 C47.7366,56.247 46.0556,55.751 44.2496,55.751 C39.3456,55.751 35.3566,59.382 35.3566,63.826 C35.3526,64.231 34.9856,104.494 35.3576,117.862 C35.6006,126.607 36.2466,149.838 64.9266,149.838 C76.5996,149.838 84.8406,142.071 92.4996,131.026 C100.1596,142.071 108.3996,149.838 120.0736,149.838 C148.7516,149.838 149.3996,126.607 149.6436,117.862 C150.0156,104.494 149.6486,64.231 149.6446,63.845 M92.4996,5 C44.2516,5 4.9996,44.252 4.9996,92.5 C4.9996,140.748 44.2516,180 92.4996,180 C140.7486,180 179.9996,140.748 179.9996,92.5 C179.9996,44.252 140.7486,5 92.4996,5 M92.4996,185 C41.4956,185 -0.0004,143.504 -0.0004,92.5 C-0.0004,41.495 41.4956,0 92.4996,0 C143.5046,0 184.9996,41.495 184.9996,92.5 C184.9996,143.504 143.5046,185 92.4996,185" id="Fill-7" fill="#53575A" mask="url(#mask-2)"></path>
                    </g>
                </g>
            </g>
        </g>
    </g>
</svg>