<?xml version="1.0" encoding="UTF-8"?>
<svg width="143px" height="89px" viewBox="0 0 143 89" version="1.1" xmlns="http://www.w3.org/2000/svg" xmlns:xlink="http://www.w3.org/1999/xlink">
    <title>Group 45</title>
    <defs>
        <polygon id="path-1" points="0 0 142.834436 0 142.834436 88.8334158 0 88.8334158"></polygon>
        <polygon id="path-3" points="0 0 143 0 143 89 0 89"></polygon>
    </defs>
    <g id="Home-Pg" stroke="none" stroke-width="1" fill="none" fill-rule="evenodd">
        <g id="Home-Pg-1440px-Large-Desktop-Opened-Accordian" transform="translate(-832.000000, -2450.000000)">
            <g id="Stacked-Group-3" transform="translate(0.000000, 2288.000000)">
                <g id="Stacked-Group-2" transform="translate(466.000000, 162.000000)">
                    <g id="Group-45" transform="translate(366.000000, 0.000000)">
                        <g id="Group-3" transform="translate(0.000000, 0.166584)">
                            <mask id="mask-2" fill="white">
                                <use xlink:href="#path-1"></use>
                            </mask>
                            <g id="Clip-2"></g>
                        </g>
                        <g id="Group-6">
                            <mask id="mask-4" fill="white">
                                <use xlink:href="#path-3"></use>
                            </mask>
                            <g id="Clip-5"></g>
                        </g>
                        <path d="M69.5601585,59.5819594 C73.3017162,54.1284761 75.2260785,48.0698589 76.15674,41.6883272 C76.5986798,38.6583569 76.8654362,35.5638699 76.8007378,32.5071003 C76.6381624,24.8014868 74.6136005,17.635167 69.7688523,11.4594271 C66.6523807,7.48718171 62.7183868,4.5256984 58.1244693,2.43370209 C57.4897615,2.1445348 56.8006407,1.97348275 56.1583018,1.58075784 L110.236534,1.58075784 C110.150601,1.82360542 110.122067,2.01053851 110.028504,2.15545301 C101.56894,15.2308435 93.095442,28.2976318 84.6504773,41.382948 C83.5768158,43.0468179 82.907934,44.8671823 83.1541197,46.9204685 C83.3873657,48.8682121 84.4039599,50.2958515 86.0320368,51.3115764 C88.0658887,52.5810671 90.3674925,52.7054686 92.6677691,52.7051378 C99.7636894,52.7044761 106.85961,52.6654352 113.95553,52.6432679 C115.121096,52.6396285 115.125078,52.6442604 115.12541,53.8244203 C115.126947,58.1169334 115.126947,62.4094465 115.125741,66.7019595 C115.12541,67.8893982 115.12176,67.8907216 113.962498,67.8913833 C107.14196,67.8936993 100.318437,67.7673127 93.5025442,67.9416733 C88.8396151,68.061112 84.46899,67.1079186 80.2042049,65.3960747 C76.5562111,63.9320413 73.1590479,62.0001788 69.8843141,59.84532 C69.7306969,59.7444092 69.5973186,59.6127289 69.5601585,59.5819594" id="Fill-7" fill="#3366FF"></path>
                        <path d="M63.3514688,35.2718903 C63.2778122,39.1706859 62.8103248,43.460883 60.9496655,47.44537 C60.3358603,48.759857 59.2814424,49.8715299 58.4124933,51.0645931 C58.1294793,51.4536786 57.829876,51.4119909 57.4420174,51.108266 C51.9303782,46.7863068 45.6655833,44.1520391 38.7912965,42.899422 C35.337066,42.2701358 31.8509841,42.0183551 28.3446632,42.1103328 C27.5855354,42.1301841 27.248772,41.9048718 27.1668207,41.1528383 C26.5407393,35.4283847 26.5404075,29.7416486 28.338691,24.1942024 C29.6081066,20.2778715 31.7000212,16.9147302 35.2587644,14.6219049 C37.6552591,13.0778045 40.295617,12.3608416 43.1277475,12.1504178 C46.8550384,11.8731613 50.3616911,12.5758974 53.6679447,14.2758305 C57.546862,16.2702246 59.9738811,19.5159124 61.508726,23.4914663 C62.9161648,27.1371578 63.3219398,30.9512545 63.3514688,35.2718903" id="Fill-9" fill="#3366FF"></path>
                        <path d="M34.8741905,1.78559018 C34.5934991,1.87690617 34.3144665,1.97252327 34.0324479,2.05887643 C25.9292234,4.53102517 20.3104171,9.80981706 16.8064187,17.3827577 C13.4208681,24.698624 12.851854,32.4065535 13.8744204,40.3007543 C14.3996386,44.3530666 15.3127153,48.3024831 16.9670034,52.0586801 C20.7560065,60.6609107 27.3890845,65.6753495 36.5639798,67.4828105 C37.2023372,67.6088662 37.84169,67.7273123 38.4810428,67.849067 C38.476066,67.9182157 38.4710892,67.9873644 38.4661124,68.0565131 L37.4471957,68.0565131 C32.2567259,68.0568439 27.0665879,68.0836432 21.8764499,68.0449332 C19.5084889,68.027067 17.4477622,66.9676692 15.4573743,65.831513 C11.1378444,63.3653197 8.31865352,59.5896022 6.37438397,55.1276913 C3.08737398,47.5841968 1.68590732,39.6757692 2.15870325,31.4758583 C2.52400031,25.1505719 3.97191709,19.0836834 7.176644,13.5296201 C8.74101788,10.8182632 10.7645844,8.44834864 12.921861,6.20349731 C14.2509982,4.82019246 15.669386,3.49743407 17.1909594,2.33315525 C17.8790848,1.80643405 18.9129319,1.50237828 19.7951525,1.4904675 C24.5698937,1.42661248 29.3466256,1.48418126 34.1223621,1.50502512 C34.3599213,1.50601769 34.5971487,1.55167568 34.8343761,1.57682066 C34.8476476,1.64630022 34.8609191,1.71611063 34.8741905,1.78559018" id="Fill-11" fill="#3366FF"></path>
                        <path d="M128.691069,34.6392624 C128.691069,23.9638942 128.690738,13.288526 128.691069,2.61315785 C128.691401,1.4865965 128.692728,1.48394966 129.828434,1.4836188 C133.141655,1.48229538 136.454876,1.50214668 139.768097,1.46914081 C140.557086,1.46145152 140.879251,1.6381281 140.878258,2.51588648 C140.85503,23.9764667 140.856026,45.4373778 140.876596,66.897958 C140.87726,67.7191402 140.595905,67.9140138 139.825828,67.9060733 C136.42966,67.8719952 133.033161,67.8673633 129.637657,67.9096231 C128.844355,67.9189766 128.676471,67.6433744 128.67779,66.9128465 C128.697705,56.1550954 128.691401,45.3973443 128.691069,34.6392624" id="Fill-13" fill="#3366FF"></path>
                        <path d="M115.025276,12.5873119 C115.039543,12.8470331 115.066418,13.1067543 115.066089,13.3664755 C115.056796,21.6484384 115.035562,29.9300705 115.04817,38.2120335 C115.049497,38.9647286 114.840139,39.2006283 114.072053,39.1954214 C109.405807,39.1632417 104.73956,39.1801153 100.073313,39.1768067 C99.8092105,39.1764759 99.5454401,39.1414052 99.0049597,39.1026952 C104.341747,30.1269293 109.576345,21.3225462 114.810942,12.5184941 C114.882276,12.5413231 114.953611,12.564152 115.025276,12.5873119" id="Fill-15" fill="#3366FF"></path>
                        <path d="M18.2537714,85.0140241 C17.8184674,84.813526 17.5616646,84.6480984 17.2809731,84.5756412 C16.6465971,84.4125297 16.7501145,84.0370092 16.8937781,83.5705036 C17.0570171,83.0414665 17.3390357,82.9269906 17.8124952,83.1665297 C18.2769965,83.4017676 18.7756718,83.5873772 19.1993633,83.8811765 C19.6343355,84.183578 19.8586233,84.0783661 20.1253797,83.6800167 C21.2653985,81.9764441 21.3370644,80.1186932 20.8911432,78.2152842 C20.3931315,76.0902024 18.7902704,74.8594217 16.6688268,74.8702679 C14.5609864,74.8812582 12.9106798,76.1616671 12.4859929,78.2652433 C12.2985335,79.1936225 12.2610416,80.1782471 12.3244129,81.1261467 C12.5254755,84.1412286 15.2889262,86.0300799 18.2537714,85.0140241 M21.1841108,85.274407 C21.6625471,85.559604 22.0520646,85.8881431 22.5019672,86.0393438 C23.3619581,86.3285111 23.3865104,86.7940241 22.948552,87.4514331 C22.875559,87.5612769 22.8291088,87.688987 22.72161,87.908013 C21.9382618,87.4458085 21.2079994,86.9703699 20.4342731,86.5799609 C20.1419691,86.4323996 19.6963796,86.3477007 19.4110431,86.461184 C14.516527,88.4082658 9.79619885,85.0216338 10.3177674,79.343169 C10.6150482,76.111708 12.32574,74.0461801 15.0470538,73.3861243 C19.2716928,72.362128 22.9754267,75.242221 23.0845845,79.5664961 C23.1380022,81.6819832 22.7398582,83.6055743 21.1841108,85.274407" id="Fill-17" fill="#3366FF"></path>
                        <path d="M114.849994,76.6405467 L114.849994,84.4480635 C114.849994,84.8881007 114.810179,85.332439 114.85862,85.7675133 C114.943557,86.528149 114.647272,86.754123 113.884826,86.7534613 C113.143947,86.7527996 112.953833,86.5218628 112.960137,85.8058925 C112.992984,82.0652456 112.964782,78.323937 112.991325,74.5829593 C112.993979,74.2087622 113.189402,73.5318329 113.347332,73.5159518 C114.011237,73.4501117 114.776337,73.1745094 115.287952,73.9735243 C116.29592,75.5477325 117.340052,77.0991117 118.377881,78.6544612 C119.428649,80.229662 120.489702,81.7982456 121.743524,83.3496248 L121.743524,82.6081787 C121.743524,79.884911 121.76144,77.1613125 121.731248,74.4383756 C121.723617,73.7386173 121.844719,73.4233124 122.667882,73.4143793 C123.54413,73.4044537 123.579963,73.8216619 123.577309,74.4724537 C123.56271,78.1859705 123.578968,81.8998181 123.556406,85.613004 C123.554084,85.9779371 123.370274,86.6508962 123.25448,86.6545357 C122.587921,86.6740561 121.8059,87.0565245 121.28599,86.270413 C120.315183,84.8014167 119.338403,83.3360598 118.359964,81.8723571 C117.237198,80.1932679 116.109787,78.5181489 114.849994,76.6405467" id="Fill-19" fill="#3366FF"></path>
                        <path d="M108.396047,77.2379716 C108.051984,77.3474846 107.711903,77.4384697 107.385093,77.5638638 C106.964056,77.7256519 106.723179,77.6075366 106.567903,77.1790794 C106.016474,75.6535069 104.870814,74.9372057 103.284874,74.8759976 C101.563897,74.8098266 100.033034,75.215124 99.0814697,76.7946258 C98.0167665,78.5623842 97.9772839,80.4843211 98.6027017,82.362585 C99.4099385,84.7864289 102.217185,85.8722951 104.917928,84.9465628 C105.100079,84.8837003 105.276921,84.8039643 105.454427,84.7285293 C106.807453,84.1525107 107.18569,83.4259531 106.79584,82.015849 C106.748063,81.8444661 106.415613,81.6512467 106.206919,81.6413211 C105.326026,81.5986408 104.440487,81.5916928 103.559594,81.6307337 C102.898011,81.6601798 102.864501,81.2846594 102.872132,80.7959865 C102.879431,80.3066519 102.833645,79.8606593 103.567225,79.8778638 C105.056615,79.9119419 106.547,79.8990385 108.036722,79.8824958 C108.507196,79.877533 108.67707,80.0846482 108.674748,80.5243545 C108.66778,81.8163434 108.688351,83.108994 108.65849,84.4003211 C108.65285,84.6434996 108.530421,84.9627747 108.349597,85.1109977 C105.292183,87.6165628 100.524742,87.698284 97.9620217,84.9293583 C96.0861002,82.9032021 95.6783344,79.3147486 97.0887593,76.4965255 C98.2629522,74.1497708 100.857855,72.8845812 103.766629,73.2405812 C106.310436,73.5519158 107.767975,74.6711983 108.345947,76.7635255 C108.381117,76.8912355 108.375476,77.0301946 108.396047,77.2379716" id="Fill-21" fill="#3366FF"></path>
                        <path d="M49.8577404,56.8010568 C42.4778107,59.0710531 34.2571338,56.6171014 30.0723092,49.7495437 C37.2024036,50.6828857 43.7442402,52.7811682 49.8577404,56.8010568" id="Fill-23" fill="#3366FF"></path>
                        <path d="M48.1903799,80.0873943 C48.1903799,81.4601118 48.21825,82.8341527 48.1784356,84.2055468 C48.159192,84.8659334 48.4040505,85.0704018 49.0427398,85.0363237 C49.9501761,84.9883498 50.8619258,85.0389706 51.7700257,85.0045617 C53.4010887,84.9433535 54.4604834,84.1787475 54.9800612,82.6346471 C55.5192145,81.0309928 55.5205416,79.3773794 55.0822515,77.7634686 C54.6157595,76.0443459 53.4040748,75.1960336 51.6044642,75.1626173 C50.7779837,75.1473979 49.9481854,75.2000039 49.1253546,75.1414425 C48.411018,75.0904909 48.1442616,75.3078626 48.1741224,76.0519556 C48.2282036,77.3948961 48.1893846,78.7421378 48.1903799,80.0873943 M46.2132635,79.9960783 C46.2129317,78.1280708 46.2487647,76.2590708 46.1960106,74.3927176 C46.1741127,73.6112381 46.4494956,73.4084239 47.192034,73.4329072 C48.7341782,73.4841897 50.2793085,73.4352232 51.8227798,73.4573905 C54.4667873,73.4961005 56.2099942,74.7755169 56.9661359,77.2870374 C57.5689922,79.2873868 57.5159063,81.3009705 56.8048876,83.2688962 C56.0092633,85.469413 54.332082,86.6611528 51.9674388,86.7127661 C50.3141461,86.7491602 48.6591944,86.7011862 47.0059017,86.7385728 C46.3828065,86.7527996 46.1950152,86.5294725 46.2033099,85.9293014 C46.2305164,83.9521118 46.2135953,81.9739296 46.2132635,79.9960783" id="Fill-25" fill="#3366FF"></path>
                        <path d="M137.715101,77.286111 C137.40853,77.3291221 137.134806,77.3529437 136.867386,77.4075348 C136.325911,77.5180404 136.003414,77.3893377 135.869372,76.7799028 C135.66831,75.8660812 135.032606,75.1960998 134.12882,75.1213266 C133.086678,75.0356351 132.002731,75.1329065 130.972865,75.3327429 C130.292703,75.4640924 129.93006,76.0639325 129.925083,76.8305236 C129.920107,77.5904976 130.322564,78.0328508 130.975852,78.2326872 C132.317597,78.6432783 133.680244,78.9876984 135.02962,79.3744679 C135.424778,79.4879512 135.823254,79.6173155 136.188219,79.8016017 C138.63415,81.0366835 139.006415,83.8856761 136.975881,85.7434271 C134.764855,87.7666056 129.971202,87.3259067 128.351419,84.9301854 C128.079354,84.5275349 127.872983,84.0603676 127.730978,83.593862 C127.38592,82.4610144 127.482802,82.3710218 128.685529,82.2704419 C129.156334,82.2310702 129.380621,82.3405832 129.465891,82.8491073 C129.627803,83.8135497 130.209756,84.4832003 131.131459,84.8395312 C132.470218,85.3573193 133.821254,85.4205126 135.156031,84.8534271 C135.92279,84.5278657 136.410184,83.94523 136.403881,83.0750813 C136.397577,82.2188285 135.88563,81.692769 135.116217,81.4466129 C134.016012,81.0942523 132.890924,80.8179884 131.786406,80.4775385 C131.132123,80.275717 130.469545,80.0682709 129.859058,79.7658694 C128.738283,79.2103638 128.098266,78.3021668 128.077695,77.0141482 C128.056461,75.6513563 128.633438,74.5823637 129.816921,73.9504306 C131.888928,72.8443823 134.012694,72.9098916 136.057164,74.0321518 C137.252922,74.6882373 137.840848,75.9345682 137.715101,77.286111" id="Fill-27" fill="#3366FF"></path>
                        <path d="M80.5227201,87.2476264 C79.3116989,86.8489461 78.0406244,86.5723513 76.9065777,86.0171765 C75.7572689,85.4550539 75.2021899,84.3208828 75.0475773,83.0586709 C75.0207026,82.8396449 75.3067027,82.3764479 75.4357677,82.3810798 C75.8896518,82.3969609 76.4722691,81.8778493 76.8014014,82.6351765 C77.7805037,84.8882992 79.59604,85.7438903 81.9915394,85.073578 C82.3571682,84.971013 82.7284375,84.8128643 83.036999,84.5954925 C84.2211454,83.761407 84.0811315,82.1144107 82.7347414,81.5466635 C81.8014257,81.1526151 80.791799,80.9388828 79.8180053,80.6374739 C79.0840933,80.4105073 78.3229748,80.2394553 77.6268865,79.9261356 C76.0280068,79.206195 75.3883222,78.1898084 75.5087607,76.6513325 C75.6321854,75.0691838 76.5777772,74.0789347 78.0011418,73.5654477 C79.616279,72.9834737 81.2609453,73.0529533 82.8548482,73.6958046 C84.1567788,74.2208715 84.9414542,75.2104589 85.1756955,76.5844998 C85.2141828,76.8098121 84.969656,77.2918679 84.8342871,77.3001392 C84.3455654,77.3299162 83.7115212,77.7878195 83.3760849,77.049682 C82.4610175,75.0384143 80.3574903,74.3062321 78.347527,75.3123623 C77.6978888,75.6372619 77.2974224,76.1381764 77.3133481,76.8677117 C77.3292739,77.5830203 77.7659051,78.0475407 78.4301419,78.2487006 C79.5376456,78.5835259 80.6633976,78.8587973 81.772892,79.187998 C82.4036184,79.3752619 83.0366672,79.5774144 83.6352103,79.8473921 C86.4653501,81.1221765 86.1292503,84.5786189 84.1123194,85.9979869 C83.047948,86.7467119 81.8518572,86.963091 80.5996945,87.0289312 C80.574147,87.1020502 80.5482676,87.1745074 80.5227201,87.2476264" id="Fill-29" fill="#3366FF"></path>
                        <path d="M63.3861405,79.0308419 L65.6393034,79.0308419 C67.0739487,79.0311727 68.5095894,79.0632657 69.9429076,79.0189311 C70.6608938,78.9964329 70.6542581,79.3927973 70.6602302,79.9009906 C70.6662024,80.4290352 70.6234019,80.792314 69.9269818,80.778749 C68.1068005,80.7430166 66.2849602,80.7674999 64.4641152,80.7678307 L63.4077066,80.7678307 L63.4077066,84.9759758 C63.6970246,84.9925185 63.9899921,85.0229572 64.2829597,85.023288 C66.3798511,85.02792 68.4770743,85.0490947 70.5733021,85.0130315 C71.2587733,85.0014516 71.473771,85.2184925 71.47245,85.904355 C71.4714485,86.5634182 71.2640819,86.7470427 70.6174298,86.7400948 C67.830754,86.7093252 65.0440782,86.7063476 62.258066,86.741749 C61.5818849,86.7500204 61.4196412,86.5127974 61.4235518,85.8841728 C61.4458524,82.0075445 61.4445252,78.1309162 61.424618,74.2542879 C61.421632,73.6613957 61.580226,73.4291355 62.2152655,73.4357526 C64.9462012,73.4648678 67.6781321,73.4678455 70.4090678,73.4344291 C71.0825946,73.4264886 71.1652095,73.722273 71.1685273,74.2787712 C71.172177,74.8703399 71.0706503,75.1826671 70.3622859,75.1681095 C68.3493365,75.1270834 66.3347281,75.1542136 64.3204516,75.1542136 C64.0251615,75.1545444 63.7295397,75.1542136 63.3861405,75.1542136 L63.3861405,79.0308419 Z" id="Fill-31" fill="#3366FF"></path>
                        <path d="M31.6347256,76.6896786 C31.5696954,76.6668496 31.5040017,76.6440206 31.4386397,76.6211916 C30.2647786,78.3403143 29.0905858,80.0597679 27.8025902,81.9449798 C29.0710104,81.9449798 30.0892635,81.9734334 31.1025398,81.919504 C31.2893357,81.9095783 31.6061919,81.5714445 31.6115005,81.3782252 C31.6533056,79.8162586 31.6347256,78.2529686 31.6347256,76.6896786 M35.1042182,82.0475449 C35.2900187,83.4152995 35.2900187,83.4152995 33.4768049,83.6998349 C33.4768049,84.4052178 33.4277004,85.1400468 33.4897445,85.8646193 C33.5584244,86.6666119 33.1503268,86.7307977 32.4993615,86.7480022 C31.7790528,86.7671918 31.579649,86.483649 31.6317395,85.8295487 C31.6712221,85.3382289 31.6118323,84.8389687 31.6456745,84.3466564 C31.6851571,83.7792401 31.4791177,83.5668311 30.8925189,83.5840356 C29.6519688,83.6200988 28.4097597,83.610504 27.1688778,83.585359 C26.7786967,83.5774185 26.0627012,83.4857717 26.0557337,83.3908163 C26.0126014,82.8174445 25.9568613,82.1279427 26.2302534,81.6700393 C27.003648,80.3760653 27.9339777,79.1750616 28.8029268,77.9376638 C29.7040593,76.6552697 30.5959017,75.3662585 31.5156142,74.0970987 C31.6980968,73.8449871 31.9565586,73.5607827 32.2349276,73.4803849 C33.1725565,73.2084221 33.4751459,73.4704593 33.4764731,74.4527678 C33.4791274,76.5692474 33.4764731,78.685727 33.4774684,80.8025374 C33.4778002,81.8877419 33.4791274,81.8857568 34.58829,81.9654928 C34.7502019,81.9770728 34.910123,82.0161137 35.1042182,82.0475449" id="Fill-33" fill="#3366FF"></path>
                        <path d="M89.9867341,80.0922248 C89.9870659,78.1689645 90.0272121,76.2443809 89.9688177,74.3227749 C89.9426065,73.4483251 90.3971542,73.4549422 91.0408202,73.4294663 C91.7581429,73.4013436 91.9980246,73.619708 91.9917207,74.3561912 C91.9588738,78.1752508 91.9522381,81.994972 91.9957021,85.8137007 C92.0049921,86.6441468 91.655289,86.7301691 90.9665,86.7490278 C90.2146716,86.7698717 89.9518966,86.5498531 89.9711402,85.7796226 C90.0189175,83.8848159 89.9867341,81.9880241 89.9867341,80.0922248" id="Fill-35" fill="#3366FF"></path>
                        <path d="M54.1379204,67.9683733 C55.946821,67.3509978 57.8456358,66.7243584 59.7275295,66.0507376 C60.5284624,65.7638863 61.286263,65.3585889 62.0805602,65.0515554 C62.3347087,64.9532915 62.7408155,64.8689234 62.9130128,64.9972952 C64.1154075,65.8919272 65.2746699,66.8444588 66.4478674,67.7784625 C66.4206609,67.8416558 66.3931226,67.90518 66.3655843,67.9683733 L54.1379204,67.9683733 Z" id="Fill-37" fill="#3366FF"></path>
                    </g>
                </g>
            </g>
        </g>
    </g>
</svg>