<?xml version="1.0" encoding="UTF-8"?>
<svg width="140px" height="140px" viewBox="0 0 140 140" version="1.1" xmlns="http://www.w3.org/2000/svg" xmlns:xlink="http://www.w3.org/1999/xlink">
    <title>Group 10</title>
    <defs>
        <polygon id="path-1" points="0 0 140 0 140 139.998388 0 139.998388"></polygon>
    </defs>
    <g id="About-Pg" stroke="none" stroke-width="1" fill="none" fill-rule="evenodd">
        <g id="AboutPage_iPhone12Mini" transform="translate(-118.000000, -777.000000)">
            <g id="Stacked-Group-2" transform="translate(0.000000, 80.000000)">
                <g id="Group-15" transform="translate(16.000000, 697.000000)">
                    <g id="Group-10" transform="translate(102.000000, 0.000000)">
                        <path d="M68.9324409,73.7053973 C68.9536302,73.7271267 68.9763329,73.7391153 68.9952519,73.756349 C69.048225,73.8035543 69.1034683,73.8507595 69.1632522,73.8904719 C69.2033604,73.916697 69.2472524,73.9361786 69.2896309,73.9586573 C69.3335229,73.9818852 69.3766581,74.0081104 69.4235771,74.0268426 C69.4742799,74.0478228 69.527253,74.0598114 69.5794694,74.0747972 C69.6218478,74.0875351 69.6627128,74.1032702 69.705848,74.1115124 C69.7679022,74.1227517 69.8299564,74.1257489 69.8920106,74.1302446 C69.9268215,74.1324925 69.9601188,74.1399854 69.9949297,74.1399854 C69.9994703,74.1399854 70.0009838,74.1399854 70.0032541,74.1399854 C70.0380649,74.1399854 70.0728758,74.1332418 70.1084435,74.1302446 C70.1712544,74.1257489 70.2340654,74.1227517 70.2961196,74.1107631 C70.3173088,74.1062674 70.3332007,74.0995238 70.3513629,74.095028 C70.4300658,74.0762958 70.5087687,74.0545664 70.5852013,74.0238455 C70.5920121,74.020099 70.5995797,74.014854 70.607904,74.0111076 C70.7728773,73.939925 70.9295263,73.841768 71.0649861,73.7083944 C71.0740672,73.7001523 71.0801213,73.6896622 71.0884456,73.68142 C72.0063935,72.7567963 72.813098,71.7902124 73.5918024,70.8550986 C75.3300764,68.767577 76.831485,66.9655348 78.8368948,66.5481804 C80.1135462,66.2844303 81.4303058,66.7639759 82.1204694,67.7432977 C83.2124718,69.2943278 82.7591735,71.8891186 80.8771154,74.865298 C78.9080301,77.9785974 77.0622964,81.079159 75.2778601,84.0770678 C73.4563426,87.1364183 71.7195821,90.0549024 70.000227,92.7508474 C68.2816287,90.0556517 66.5441114,87.1371676 64.7233508,84.0785663 C62.9389145,81.0799082 61.0939375,77.9793467 59.1240954,74.865298 C57.2412805,71.8891186 56.7879822,69.2943278 57.8807414,67.7432977 C58.5716618,66.7632266 59.8884214,66.2844303 61.1635593,66.5481804 C63.168969,66.9655348 64.6703777,68.767577 66.4086517,70.8550986 C67.1828155,71.7849673 67.9857362,72.745557 68.8983868,73.6664342 C68.9104949,73.6791721 68.919576,73.6934086 68.9324409,73.7053973 Z" id="Fill-1" fill="#C8C8C8"></path>
                        <path d="M49.1339765,109.274862 C32.6025894,109.274862 30.0750164,98.6364444 29.7829076,88.2295573 C29.5036638,78.2684977 29.7806374,48.1552869 29.7836644,47.8383372 C29.7836644,46.14719 31.4439923,44.7707445 33.4857265,44.7707445 C35.5282174,44.7707445 37.1885453,46.14719 37.1885453,47.8383372 L37.1885453,53.9255682 L37.1885453,64.8479667 C37.1885453,65.6751827 37.865844,66.3465465 38.7020621,66.3465465 C39.5375233,66.3465465 40.2155788,65.6751827 40.2155788,64.8479667 L40.2155788,53.9255682 L40.2155788,47.8383372 L40.2155788,36.9758819 C40.2155788,35.2847346 41.8759068,33.9082891 43.9176409,33.9082891 C45.9601318,33.9082891 47.6204597,35.2847346 47.6204597,36.9758819 L47.6204597,43.2721647 L47.6204597,64.8479667 C47.6204597,65.6751827 48.2985152,66.3465465 49.1339765,66.3465465 C49.9694378,66.3465465 50.6474933,65.6751827 50.6474933,64.8479667 L50.6474933,43.2721647 L50.6474933,36.9758819 L50.6474933,32.4097094 C50.6474933,30.7185621 52.3078212,29.3421166 54.3503121,29.3421166 C56.3920463,29.3421166 58.0523742,30.7185621 58.0523742,32.4097094 L58.0523742,38.7059922 L58.0523742,45.2435464 L58.0523742,60.245079 C58.0523742,61.0730443 58.7304297,61.7436588 59.565891,61.7436588 C60.402109,61.7436588 61.0794077,61.0730443 61.0794077,60.245079 L61.0794077,45.2435464 L61.0794077,38.7059922 C61.0794077,37.014845 62.7397357,35.6383995 64.7822266,35.6383995 C66.8239607,35.6383995 68.4842886,37.014845 68.4842886,38.7059922 L68.4842886,68.6386242 C66.6385549,66.4274698 64.6936858,64.2200618 61.7862201,63.6146356 C59.3040525,63.0991242 56.7961552,64.0462266 55.3984225,66.0280983 C54.3283661,67.5469089 53.057012,70.9202119 56.5585331,76.4559655 C58.5064292,79.5362962 60.3415683,82.6188747 62.1161667,85.6002991 C64.1783334,89.0650155 66.1731485,92.4128427 68.1936934,95.5006663 C62.6209246,103.721875 57.0072908,109.274862 49.1339765,109.274862" id="Fill-3" fill="#FFFFFF"></path>
                        <path d="M110.21853,88.2296323 C109.924908,98.6365193 107.396578,109.274937 90.8667046,109.274937 C82.9933903,109.274937 77.3789997,103.72195 71.8069877,95.5014905 C73.8282894,92.4129176 75.8231045,89.0643412 77.8852711,85.5988755 C79.6598695,82.6182004 81.4950086,79.5348725 83.4429047,76.4560404 C86.9444258,70.9202868 85.672315,67.5462345 84.6030154,66.0289225 C83.2052826,64.0463015 80.6981421,63.0984498 78.214461,63.6147105 C75.304725,64.220886 73.3590992,66.4312912 71.5118519,68.6439442 L71.5118519,38.749526 C71.5118519,38.7352895 71.5156357,38.7210529 71.5156357,38.7060672 C71.5156357,37.0141706 73.1767204,35.6384744 75.2184545,35.6384744 C77.2601887,35.6384744 78.9212733,37.0141706 78.9212733,38.7060672 L78.9212733,45.2436213 L78.9212733,60.2451539 C78.9212733,61.0731193 79.5985721,61.7437337 80.4347901,61.7437337 C81.2702514,61.7437337 81.9483069,61.0731193 81.9483069,60.2451539 L81.9483069,45.2436213 L81.9483069,38.7060672 L81.9483069,32.4097843 C81.9483069,30.7186371 83.6086348,29.3421916 85.650369,29.3421916 C87.6921031,29.3421916 89.3531878,30.7186371 89.3531878,32.4097843 L89.3531878,36.9759568 L89.3531878,43.2722397 L89.3531878,64.8480417 C89.3531878,65.6752577 90.0304866,66.3466214 90.8667046,66.3466214 C91.7021658,66.3466214 92.3802214,65.6752577 92.3802214,64.8480417 L92.3802214,43.2722397 L92.3802214,36.9759568 C92.3802214,35.2848096 94.0405493,33.9083641 96.0822834,33.9083641 C98.1247743,33.9083641 99.785859,35.2848096 99.785859,36.9759568 L99.785859,47.8384122 L99.785859,53.9256431 L99.785859,64.8480417 C99.785859,65.6752577 100.463158,66.3466214 101.299376,66.3466214 C102.134837,66.3466214 102.812893,65.6752577 102.812893,64.8480417 L102.812893,53.9256431 L102.812893,47.8384122 C102.812893,46.1472649 104.47322,44.7708194 106.514955,44.7708194 C108.557446,44.7708194 110.217773,46.1472649 110.217773,47.8518994 C110.2208,48.1553618 110.497774,78.2685726 110.21853,88.2296323" id="Fill-5" fill="#FFFFFF"></path>
                        <g id="Group-9">
                            <mask id="mask-2" fill="white">
                                <use xlink:href="#path-1"></use>
                            </mask>
                            <g id="Clip-8"></g>
                            <path d="M110.21853,89.108128 C109.924908,99.6186357 107.396578,110.362979 90.8667046,110.362979 C82.9933903,110.362979 77.3789997,104.754701 71.8069877,96.4523916 C73.8282894,93.333066 75.8231045,89.951148 77.8852711,86.451177 C79.6598695,83.4408235 81.4950086,80.3267952 83.4429047,77.2173074 C86.9444258,71.6264347 85.672315,68.2187872 84.6030154,66.6863675 C83.2052826,64.6840056 80.6981421,63.7267163 78.214461,64.2481174 C75.304725,64.8603285 73.3590992,67.0927425 71.5118519,69.3274267 L71.5118519,39.135352 C71.5118519,39.1209738 71.5156357,39.1065955 71.5156357,39.0914605 C71.5156357,37.3827179 73.1767204,35.993324 75.2184545,35.993324 C77.2601887,35.993324 78.9212733,37.3827179 78.9212733,39.0914605 L78.9212733,45.6941086 L78.9212733,60.8450104 C78.9212733,61.6812197 79.5985721,62.3585114 80.4347901,62.3585114 C81.2702514,62.3585114 81.9483069,61.6812197 81.9483069,60.8450104 L81.9483069,45.6941086 L81.9483069,39.0914605 L81.9483069,32.7324861 C81.9483069,31.0245002 83.6086348,29.6343495 85.650369,29.6343495 C87.6921031,29.6343495 89.3531878,31.0245002 89.3531878,32.7324861 L89.3531878,37.3441236 L89.3531878,43.7030981 L89.3531878,65.4937287 C89.3531878,66.3291812 90.0304866,67.0072297 90.8667046,67.0072297 C91.7021658,67.0072297 92.3802214,66.3291812 92.3802214,65.4937287 L92.3802214,43.7030981 L92.3802214,37.3441236 C92.3802214,35.6361377 94.0405493,34.2459871 96.0822834,34.2459871 C98.1247743,34.2459871 99.785859,35.6361377 99.785859,37.3441236 L99.785859,48.3147356 L99.785859,54.4625767 L99.785859,65.4937287 C99.785859,66.3291812 100.463158,67.0072297 101.299376,67.0072297 C102.134837,67.0072297 102.812893,66.3291812 102.812893,65.4937287 L102.812893,54.4625767 L102.812893,48.3147356 C102.812893,46.6067497 104.47322,45.2165991 106.514955,45.2165991 C108.557446,45.2165991 110.217773,46.6067497 110.217773,48.3283571 C110.2208,48.6348411 110.497774,79.0478869 110.21853,89.108128 M49.1337495,110.362979 C32.6031191,110.362979 30.0755461,99.6186357 29.7826806,89.108128 C29.5034368,79.0478869 29.7804103,48.6348411 29.7834374,48.3147356 C29.7834374,46.6067497 31.4437653,45.2165991 33.4862562,45.2165991 C35.5279903,45.2165991 37.1883182,46.6067497 37.1883182,48.3147356 L37.1883182,54.4625767 L37.1883182,65.4937287 C37.1883182,66.3291812 37.8663738,67.0072297 38.701835,67.0072297 C39.5380531,67.0072297 40.2153518,66.3291812 40.2153518,65.4937287 L40.2153518,54.4625767 L40.2153518,48.3147356 L40.2153518,37.3441236 C40.2153518,35.6361377 41.8756797,34.2459871 43.9181706,34.2459871 C45.9599048,34.2459871 47.6202327,35.6361377 47.6202327,37.3441236 L47.6202327,43.7030981 L47.6202327,65.4937287 C47.6202327,66.3291812 48.2982882,67.0072297 49.1337495,67.0072297 C49.9699675,67.0072297 50.6472663,66.3291812 50.6472663,65.4937287 L50.6472663,43.7030981 L50.6472663,37.3441236 L50.6472663,32.7324861 C50.6472663,31.0245002 52.3083509,29.6343495 54.3500851,29.6343495 C56.3918192,29.6343495 58.0521471,31.0245002 58.0521471,32.7324861 L58.0521471,39.0914605 L58.0521471,45.6941086 L58.0521471,60.8450104 C58.0521471,61.6812197 58.7302027,62.3585114 59.5656639,62.3585114 C60.401882,62.3585114 61.0791807,61.6812197 61.0791807,60.8450104 L61.0791807,45.6941086 L61.0791807,39.0914605 C61.0791807,37.3827179 62.7402654,35.993324 64.7819995,35.993324 C66.8237337,35.993324 68.4848183,37.3827179 68.4848183,39.0914605 L68.4848183,69.3221294 C66.6383279,67.0889587 64.6934588,64.8595718 61.7859931,64.2481174 C59.3045823,63.727473 56.7959282,64.6840056 55.3989522,66.6856107 C54.3288958,68.2187872 53.056785,71.6264347 56.5583061,77.2173074 C58.5062022,80.327552 60.3413413,83.4415803 62.1166965,86.4526905 C64.1781063,89.9519048 66.1729215,93.333066 68.1934664,96.4516348 C62.6214543,104.754701 57.0078206,110.362979 49.1337495,110.362979 M68.8980084,74.3999253 C68.9101166,74.4127901 68.9199544,74.4271683 68.9320626,74.4392763 C68.9328193,74.4400331 68.9335761,74.4415466 68.9350896,74.4423033 C68.9540085,74.4612221 68.9759545,74.4733301 68.9948735,74.4907354 C69.0486033,74.5384106 69.10309,74.5860859 69.1628739,74.6261937 C69.2037388,74.65268 69.246874,74.6723555 69.2892525,74.695058 C69.3339013,74.7185173 69.3762797,74.7450035 69.4239555,74.7639223 C69.4739016,74.7851113 69.5268747,74.7972193 69.5798477,74.8123543 C69.6214695,74.8244623 69.6623344,74.8403541 69.7062264,74.8494351 C69.7682806,74.8607863 69.8303348,74.8638133 69.892389,74.8683539 C69.9271998,74.8706241 69.9604972,74.8781916 69.9953081,74.8781916 L69.9983351,74.8781916 C69.9998486,74.8781916 70.0006054,74.8781916 70.0028757,74.8781916 C70.0376866,74.8781916 70.0724975,74.8713809 70.1080651,74.8683539 C70.170876,74.8638133 70.233687,74.8607863 70.2957412,74.8486783 C70.2964979,74.8486783 70.2980115,74.8486783 70.299525,74.8479216 C70.3169304,74.8441378 70.3335791,74.8373271 70.3509845,74.8327866 C70.4304442,74.8138678 70.5083903,74.7919221 70.5848229,74.7608953 C70.5923905,74.7571115 70.5992013,74.7518143 70.6075256,74.7480305 C70.772499,74.6761392 70.929148,74.5770049 71.0653645,74.4423033 C71.0736888,74.4339791 71.0797429,74.4233846 71.0880672,74.4143036 C72.0067719,73.4812302 72.8127196,72.505022 73.5921807,71.5605974 C75.329698,69.4522905 76.8318634,67.6323056 78.8365164,67.2100388 C80.1139246,66.9444194 81.4299274,67.4287397 82.1200911,68.4178126 C83.2120934,69.9842861 82.7595519,72.6049131 80.8774938,75.6107261 C78.9076517,78.7550244 77.0626747,81.886458 75.2774817,84.9142167 C73.456721,88.004029 71.7192037,90.9515722 69.9998486,93.6743605 C68.2812503,90.952329 66.5437331,88.0047858 64.7237291,84.9157302 C62.9385361,81.8872147 61.0935591,78.7557812 59.123717,75.6107261 C57.2409021,72.6049131 56.7883606,69.9842861 57.8811197,68.4178126 C58.5712834,67.4279829 59.888043,66.9444194 61.1639377,67.2100388 C63.1685906,67.6323056 64.670756,69.4522905 66.4082733,71.5605974 C67.1831939,72.4997248 67.9853578,73.4698789 68.8980084,74.3999253 M113.244807,48.3147356 C113.244807,44.9373581 110.226098,42.1895971 106.514955,42.1895971 C105.147492,42.1895971 103.875381,42.5649453 102.812893,43.2051562 L102.812893,37.3441236 C102.812893,33.9667461 99.7941833,31.2189851 96.0822834,31.2189851 C94.7034696,31.2189851 93.4215209,31.5996306 92.3529781,32.2496793 C92.080545,29.0978134 89.1814036,26.6073475 85.650369,26.6073475 C81.9399826,26.6073475 78.9212733,29.3551086 78.9212733,32.7324861 L78.9212733,33.9818812 C77.857271,33.3416702 76.5859169,32.966322 75.2184545,32.966322 C73.1146662,32.966322 71.2348783,33.8502066 69.9998486,35.2305195 C68.7655757,33.8502066 66.8850311,32.966322 64.7819995,32.966322 C63.4137804,32.966322 62.1424263,33.3416702 61.0791807,33.9818812 L61.0791807,32.7324861 C61.0791807,29.3551086 58.0604715,26.6073475 54.3500851,26.6073475 C50.8182937,26.6073475 47.919909,29.0978134 47.6467192,32.2496793 C46.5789331,31.5996306 45.2962277,31.2189851 43.9181706,31.2189851 C40.2070275,31.2189851 37.1883182,33.9667461 37.1883182,37.3441236 L37.1883182,43.2051562 C36.1250727,42.5649453 34.8529618,42.1895971 33.4862562,42.1895971 C29.775113,42.1895971 26.7564038,44.9373581 26.7564038,48.3003573 C26.7533768,48.6068413 26.4756464,79.0758866 26.7571606,89.1921273 C26.9410528,95.8099104 27.4299188,113.389981 49.1337495,113.389981 C57.9673902,113.389981 64.2038361,107.5123 69.9998486,99.1539909 C75.7966179,107.5123 82.0323071,113.389981 90.8667046,113.389981 C112.569022,113.389981 113.059401,95.8099104 113.24405,89.1921273 C113.525564,79.0758866 113.247834,48.6068413 113.244807,48.3147356 M69.9998486,3.78375249 C33.4877697,3.78375249 3.78348926,33.4877231 3.78348926,69.9994211 C3.78348926,106.511119 33.4877697,136.21509 69.9998486,136.21509 C106.512684,136.21509 136.216208,106.511119 136.216208,69.9994211 C136.216208,33.4877231 106.512684,3.78375249 69.9998486,3.78375249 M69.9998486,139.998842 C31.4021436,139.998842 -0.000302703357,108.596724 -0.000302703357,69.9994211 C-0.000302703357,31.4013619 31.4021436,0 69.9998486,0 C108.59831,0 140,31.4013619 140,69.9994211 C140,108.596724 108.59831,139.998842 69.9998486,139.998842" id="Fill-7" fill="#53575A" mask="url(#mask-2)"></path>
                        </g>
                    </g>
                </g>
            </g>
        </g>
    </g>
</svg>