<?xml version="1.0" encoding="UTF-8"?>
<svg width="140px" height="140px" viewBox="0 0 140 140" version="1.1" xmlns="http://www.w3.org/2000/svg" xmlns:xlink="http://www.w3.org/1999/xlink">
    <title>Group 26</title>
    <defs>
        <polygon id="path-1" points="0 0 140 0 140 139.999945 0 139.999945"></polygon>
    </defs>
    <g id="About-Pg" stroke="none" stroke-width="1" fill="none" fill-rule="evenodd">
        <g id="AboutPage_iPhone12Mini" transform="translate(-118.000000, -491.000000)">
            <g id="Stacked-Group-2" transform="translate(0.000000, 80.000000)">
                <g id="Group-27" transform="translate(16.000000, 411.000000)">
                    <g id="Group-26" transform="translate(102.000000, 0.000000)">
                        <path d="M63.2457531,69.6504643 L63.2457531,69.6799778 L65.9837005,69.6799778 C65.798295,64.5839771 64.4338619,60.7040846 63.4069424,57.829922 C62.3838067,54.966354 61.6444549,52.8973808 63.1390503,51.5904616 C65.056673,49.9127317 66.9531065,51.4913265 68.2078098,52.5379212 C68.805648,53.036624 69.5502971,53.6571646 69.9528919,53.6571646 C70.3554867,53.6571646 71.099379,53.036624 71.6979739,52.5379212 C72.953434,51.49284 74.848354,49.9104614 76.7667334,51.5904616 C78.2613288,52.8973808 77.521977,54.966354 76.4980846,57.829922 C75.4719219,60.7040846 74.1067319,64.5832203 73.9213264,69.6799778 L76.6600306,69.6799778 C76.6607874,66.0740313 78.0070584,62.6920849 80.451384,60.1561926 C83.0773314,57.4318679 84.5234943,53.8508944 84.5234943,50.0739209 C84.5234943,46.0351095 82.9093313,42.2800819 79.977654,39.4997572 C77.2427336,36.9055946 73.710948,35.5025674 69.9589459,35.5025674 C69.6925674,35.5025674 69.4254321,35.510135 69.1575401,35.5237566 C61.6346171,35.9233242 55.5858571,42.1408386 55.3875867,49.6804073 C55.2831542,53.6480836 56.7542901,57.3970571 59.5308322,60.2356521 C61.9267254,62.6837606 63.2457531,66.0278692 63.2457531,69.6504643" id="Fill-1" fill="#C8C8C8"></path>
                        <path d="M75.2714569,53.2989159 C74.9218351,52.9931862 74.5843214,53.0877808 73.1517801,54.2819431 C72.1808606,55.0909162 71.1774006,55.9278893 69.9529675,55.9278893 C68.7285344,55.9278893 67.7243177,55.0909162 66.754155,54.2819431 C65.3216137,53.0877808 64.9841,52.9931862 64.6337214,53.2989159 C64.3022618,53.5895106 65.0204243,55.5987001 65.5448571,57.0660516 C66.5679927,59.9288629 68.0633449,64.1795662 68.2532909,69.6796751 L71.6518874,69.6796751 C71.8425902,64.1795662 73.3371856,59.9288629 74.361078,57.0660516 C74.884754,55.5979433 75.6029165,53.5887538 75.2714569,53.2989159" id="Fill-3" fill="#C8C8C8"></path>
                        <g id="Group-7">
                            <mask id="mask-2" fill="white">
                                <use xlink:href="#path-1"></use>
                            </mask>
                            <g id="Clip-6"></g>
                            <path d="M70.0000378,3.78378434 C33.4880181,3.78378434 3.78378583,33.4880049 3.78378583,70.0000103 C3.78378583,106.512016 33.4880181,136.216236 70.0000378,136.216236 C106.512058,136.216236 136.21629,106.512016 136.21629,70.0000103 C136.21629,33.4880049 106.512058,3.78378434 70.0000378,3.78378434 M70.0000378,140.000021 C31.4016386,140.000021 0,108.598394 0,70.0000103 C0,31.4016262 31.4016386,0 70.0000378,0 C108.598437,0 140.000076,31.4016262 140.000076,70.0000103 C140.000076,108.598394 108.598437,140.000021 70.0000378,140.000021" id="Fill-5" fill="#53575A" mask="url(#mask-2)"></path>
                        </g>
                        <path d="M107.310209,70.0747022 C107.247399,68.6694047 107.185344,67.2686477 107.133885,65.892107 C106.953777,61.1722144 106.654858,53.2792403 101.18653,53.2792403 L101.155503,53.2792403 C99.931827,53.2852943 98.8489075,53.7612944 98.0247989,54.655781 C96.2479331,56.5839975 95.6440409,60.3980521 96.1238249,66.6579449 C96.2471763,68.2728641 96.2865277,69.7803238 96.235825,71.2749186 C95.8105275,71.0100537 95.3375542,70.8291888 94.8282567,70.7519996 C93.3684721,70.5310266 89.663389,70.9427023 86.7945226,79.5598928 C84.2866293,87.0881101 80.5739787,90.2059484 77.2979769,92.9552461 C75.7186247,94.2818409 74.2262996,95.5350303 72.972353,97.1484359 C71.6631631,98.8344902 70.6967842,101.033626 69.9854324,103.340221 C69.3421888,100.985193 68.3901883,98.757301 66.9879173,97.1000035 C65.7710518,95.6621654 64.3899699,94.508868 62.9286719,93.2882191 C59.5845619,90.496543 55.7947221,87.3332993 53.2058558,79.5598928 C50.3362326,70.9442158 46.632663,70.5317833 45.171365,70.7519996 C44.6620674,70.8291888 44.1883374,71.0100537 43.7637966,71.2749186 C43.7123371,69.7803238 43.7516885,68.2728641 43.8757967,66.6579449 C44.3555807,60.3980521 43.7516885,56.5839975 41.9748227,54.655781 C41.1507141,53.7612944 40.0677946,53.2852943 38.8433615,53.2792403 L38.8130913,53.2792403 C33.344764,53.2792403 33.0450881,61.1722144 32.8664934,65.892107 C32.8142772,67.2686477 32.7522231,68.6686479 32.690169,70.0731887 C32.2542769,79.892109 31.8040064,90.0447592 34.6547106,95.0431383 C35.7959004,97.0424899 38.0260638,99.0403281 40.6081192,101.354491 C45.3522299,105.605194 50.7297463,110.422708 50.7297463,116.364006 C50.7297463,117.199466 51.407044,117.87752 52.2432607,117.87752 C53.0787206,117.87752 53.756775,117.199466 53.756775,116.364006 C53.756775,109.070384 47.5861771,103.542275 42.6286609,99.1001119 C40.3417407,97.0508143 38.181199,95.115787 37.2844418,93.5432462 C34.8666026,89.304651 35.2971975,79.5962171 35.7141707,70.2078914 C35.7762247,68.7957831 35.8390356,67.3897288 35.8912518,66.007134 C36.1485493,59.2091871 37.0248741,56.3062677 38.8183886,56.3062677 L38.8274696,56.3062677 C39.2156861,56.308538 39.4911457,56.4281056 39.7484431,56.7065921 C40.3871462,57.4005382 41.3815251,59.586052 40.8570924,66.4263773 C40.4961192,71.1334051 40.7730923,74.9739462 41.9453092,79.9299469 C42.8677961,85.2015152 45.5769868,91.0497323 50.0539622,97.3853008 C50.5367733,98.0678955 51.4812062,98.2298415 52.1638012,97.7477873 C52.8463961,97.2657332 53.0090989,96.3213007 52.5262879,95.6379492 C49.6036917,91.5030297 47.4650959,87.5444345 46.1513655,83.8847583 C45.6693112,82.2705959 45.2674731,80.7987038 44.9382838,79.4214063 C44.703689,78.1069196 44.5886619,76.8431356 44.6128782,75.643676 C44.6333106,74.6621623 45.0782838,73.8274595 45.626176,73.7442163 C46.5532035,73.604973 48.5919073,75.2872435 50.3339623,80.5164335 C53.1945044,89.1048672 57.5163446,92.7130839 60.9883465,95.6122195 C62.3467256,96.7458413 63.629429,97.8166522 64.6775377,99.0554632 C67.4139716,102.289085 68.0882422,108.650384 68.2274855,112.67179 C68.0292152,114.733952 67.9974313,116.164222 67.9944043,116.336763 C67.9875935,116.743141 68.1434855,117.135142 68.4280262,117.424223 C68.7125669,117.714061 69.1015401,117.87752 69.5079187,117.87752 L69.7349458,117.87752 C70.5386219,117.87752 71.2015412,117.250169 71.2461899,116.44725 C71.2552709,116.273195 71.3286764,114.839141 71.264352,112.776979 C71.6631631,108.773735 72.6984069,102.434383 75.3621921,99.006274 C76.4193818,97.6463819 77.7913826,96.4938412 79.2443563,95.2739491 C82.6497636,92.4149217 86.8883605,88.8558941 89.666416,80.5164335 C91.4069575,75.2864867 93.4464181,73.6034595 94.3734456,73.7442163 C94.9220946,73.8274595 95.3670678,74.6621623 95.3859867,75.6444327 C95.4102029,76.8446491 95.2959326,78.1091899 95.0605811,79.4236765 C94.7321485,80.7994605 94.3310672,82.2690824 93.8497696,83.879461 C92.536796,87.5406507 90.3966867,91.5007594 87.4733338,95.6379492 C86.9905227,96.3213007 87.1524687,97.2657332 87.8358205,97.7470306 C88.5191722,98.2305982 89.4628484,98.0671387 89.9449027,97.3853008 C94.4249051,91.047462 97.1348525,85.1962179 98.055826,79.9231361 C99.2257726,74.9701624 99.5027457,71.1311348 99.1417725,66.4263773 C98.6173398,59.586052 99.6117187,57.4005382 100.251179,56.7065921 C100.508476,56.4281056 100.783179,56.308538 101.172152,56.3062677 L101.180476,56.3062677 C102.974748,56.3062677 103.850316,59.2091871 104.10837,66.007134 C104.160586,67.3897288 104.223397,68.7972966 104.286208,70.2094049 C104.702424,79.5969739 105.133019,89.304651 102.71518,93.5432462 C101.817666,95.1165437 99.6578809,97.0508143 97.3709607,99.1001119 C92.4126878,103.543031 86.2428466,109.070384 86.2428466,116.364006 C86.2428466,117.199466 86.920901,117.87752 87.7563609,117.87752 C88.5925776,117.87752 89.2698753,117.199466 89.2698753,116.364006 C89.2698753,110.422708 94.6473917,105.605194 99.3907456,101.355247 C101.973558,99.0410848 104.204478,97.0424899 105.344154,95.0431383 C108.196372,90.0455159 107.745345,79.8928658 107.310209,70.0747022" id="Fill-8" fill="#53575A"></path>
                        <path d="M69.1571617,35.5239836 C69.4250537,35.5096052 69.6929458,35.5027944 69.9593243,35.5027944 C73.7105696,35.5027944 77.2423553,36.9058216 79.9772757,39.4999842 C82.9089529,42.2803089 84.523116,46.0353365 84.523116,50.0741479 C84.523116,53.8511214 83.076953,57.4313382 80.4510056,60.1564197 C78.0074368,62.6915552 76.6611658,66.0742584 76.660409,69.6802048 L73.9209481,69.6802048 C74.1071103,64.5834473 75.4715435,60.7035549 76.498463,57.830149 C77.5215987,54.9658243 78.2617072,52.8976078 76.766355,51.5899319 C74.8479756,49.9106884 72.9530557,51.493067 71.6983523,52.5373915 C71.0997574,53.036851 70.3551083,53.6573917 69.9525135,53.6573917 C69.5506754,53.6573917 68.8060264,53.036851 68.2074315,52.5373915 C66.9527281,51.4915535 65.0562946,49.9129587 63.1394287,51.5899319 C61.6440766,52.8976078 62.3834283,54.9658243 63.406564,57.830149 C64.4334835,60.7035549 65.7986734,64.5842041 65.9840789,69.6802048 L63.2453747,69.6802048 L63.2453747,69.6506913 C63.2453747,66.0280962 61.926347,62.6839876 59.5312106,60.2351224 C56.7546685,57.3965274 55.2835326,53.6483106 55.3879651,49.6806343 C55.5862355,42.1410657 61.6349955,35.9227945 69.1571617,35.5239836 L69.1571617,35.5239836 Z M70.0001892,83.2246393 C67.7367285,83.2246393 65.7933761,81.8329634 64.9768351,79.860855 C65.3196461,79.9244226 65.672295,79.9622604 66.0332681,79.9622604 L73.8725156,79.9622604 C74.2682996,79.9622604 74.6550025,79.9213955 75.0288406,79.8457199 C74.2160834,81.8261526 72.2697039,83.2246393 70.0001892,83.2246393 L70.0001892,83.2246393 Z M76.660409,71.9504754 L76.660409,74.1473406 C76.660409,75.6843138 75.4094894,76.9352329 73.8725156,76.9352329 L66.0332681,76.9352329 C64.4962943,76.9352329 63.2453747,75.6843138 63.2453747,74.1473406 L63.2453747,71.9504754 L76.660409,71.9504754 Z M68.2535937,69.6802048 C68.0628908,64.1793392 66.5675387,59.9286358 65.5451598,57.0658246 C65.020727,55.598473 64.3018077,53.5892836 64.6340241,53.2986889 C64.9836459,52.9929591 65.3211596,53.0875538 66.7537009,54.2817161 C67.7246204,55.0906892 68.7280804,55.9276623 69.9525135,55.9276623 C71.1769466,55.9276623 72.1811633,55.0906892 73.1520828,54.2817161 C74.5838673,53.0875538 74.9221378,52.9929591 75.2717596,53.2986889 C75.6032192,53.5885268 74.8850567,55.5977163 74.360624,57.0658246 C73.3374883,59.9286358 71.8421361,64.1793392 71.6514333,69.6802048 L68.2535937,69.6802048 Z M57.3668851,62.3517713 C59.1793185,64.2043121 60.2183461,66.8643125 60.2183461,69.6506913 L60.2183461,74.1473406 C60.2183461,75.9529625 61.0462384,77.5693952 62.3425634,78.6371791 C62.7671042,82.4883148 66.0370519,85.4949099 70.0001892,85.4949099 C73.9943535,85.4949099 77.2885175,82.4391256 77.6684096,78.5418278 C78.9019237,77.4755573 79.6874377,75.9022598 79.6874377,74.1473406 L79.6874377,69.6839886 C79.6874377,66.8635558 80.7325193,64.2262581 82.631223,62.25642 C85.8035491,58.9652843 87.5501446,54.6381486 87.5501446,50.0741479 C87.5501446,45.1960931 85.6007382,40.6608492 82.0606281,37.3038758 C78.5220316,33.9484158 73.8846237,32.2464696 68.9967292,32.5014967 C59.9088324,32.9835508 52.6015852,40.4943627 52.3616932,49.6011749 C52.2353147,54.3952296 54.0129373,58.922906 57.3668851,62.3517713 L57.3668851,62.3517713 Z" id="Fill-10" fill="#53575A"></path>
                        <path d="M70.0000378,28.4138744 C70.6273895,28.4138744 71.1351736,27.9053338 71.1351736,27.2787391 L71.1351736,21.7445762 C71.1351736,21.1172247 70.6273895,20.6094409 70.0000378,20.6094409 C69.3726861,20.6094409 68.8649021,21.1172247 68.8649021,21.7445762 L68.8649021,27.2787391 C68.8649021,27.9053338 69.3726861,28.4138744 70.0000378,28.4138744" id="Fill-12" fill="#53575A"></path>
                        <path d="M84.7487053,33.1583616 C85.0256784,33.1583616 85.3034083,33.0569562 85.5221111,32.8533886 L89.1711941,29.4517665 C89.629789,29.0241989 89.654762,28.3060366 89.2271942,27.8474419 C88.8003831,27.3880905 88.0814638,27.3638743 87.6236257,27.7914419 L83.9752994,31.193064 C83.5159478,31.6206317 83.4909749,32.3387939 83.9185427,32.7966319 C84.141786,33.0372805 84.4452456,33.1583616 84.7487053,33.1583616" id="Fill-14" fill="#53575A"></path>
                        <path d="M89.5597133,43.1824388 C89.7012269,43.6818983 90.1567947,44.0080605 90.6509571,44.0080605 C90.7538761,44.0080605 90.8583086,43.9936821 90.9619843,43.9649254 L95.600149,42.6504387 C96.2032844,42.4786549 96.553663,41.8513035 96.3833926,41.2481682 C96.2116088,40.645033 95.58123,40.2976816 94.9811216,40.4656816 L90.3422002,41.7801683 C89.7390647,41.9519521 89.3886862,42.5793036 89.5597133,43.1824388" id="Fill-16" fill="#53575A"></path>
                        <path d="M90.2381461,55.5189379 C89.6380376,55.338073 89.0046319,55.6763433 88.8230102,56.2764515 C88.6413885,56.8765597 88.9804157,57.510722 89.5805241,57.6915869 L93.3120937,58.8199114 C93.4225802,58.8532087 93.5330668,58.8691005 93.6420398,58.8691005 C94.1293914,58.8691005 94.5796619,58.5527762 94.7279863,58.0623977 C94.9096081,57.4622895 94.5705808,56.8281273 93.9704724,56.6472624 L90.2381461,55.5189379 Z" id="Fill-18" fill="#53575A"></path>
                        <path d="M54.4772835,32.8539183 C54.6959863,33.0574859 54.9737162,33.1581346 55.2506893,33.1581346 C55.5549057,33.1581346 55.8583653,33.0370535 56.0816087,32.7971616 C56.5091765,32.3385669 56.4842035,31.6204047 56.0256087,31.192837 L52.3765256,27.7912149 C51.917174,27.364404 51.1990115,27.3886202 50.7722004,27.8479717 C50.3446326,28.3058096 50.3696056,29.0239718 50.8282004,29.4522962 L54.4772835,32.8539183 Z" id="Fill-20" fill="#53575A"></path>
                        <path d="M44.3988672,42.650363 L49.0377887,43.9648497 C49.1414644,43.9936065 49.2458969,44.0079849 49.3488159,44.0079849 C49.8429783,44.0079849 50.2977894,43.6818226 50.4400597,43.1823631 C50.6103301,42.5792279 50.2607082,41.9511197 49.6575728,41.7808494 L45.0178946,40.465606 C44.4170294,40.2983627 43.7874075,40.6457141 43.6163803,41.2480926 C43.4453532,41.8512278 43.7957318,42.479336 44.3988672,42.650363" id="Fill-22" fill="#53575A"></path>
                        <path d="M49.7619296,55.5189379 L46.03036,56.6472624 C45.4302516,56.8281273 45.0904676,57.4622895 45.2720893,58.0623977 C45.4204137,58.5527762 45.8706843,58.8691005 46.3580359,58.8691005 C46.4670089,58.8691005 46.5774954,58.8532087 46.6872252,58.8199114 L50.4187948,57.6915869 C51.0189033,57.510722 51.3586872,56.8765597 51.1770655,56.2764515 C50.9954438,55.6771001 50.362038,55.3358027 49.7619296,55.5189379" id="Fill-24" fill="#53575A"></path>
                    </g>
                </g>
            </g>
        </g>
    </g>
</svg>