<?xml version="1.0" encoding="UTF-8"?>
<svg width="148px" height="69px" viewBox="0 0 148 69" version="1.1" xmlns="http://www.w3.org/2000/svg" xmlns:xlink="http://www.w3.org/1999/xlink">
    <title>Group 5</title>
    <g id="Symbols" stroke="none" stroke-width="1" fill="none" fill-rule="evenodd">
        <g id="footerr" transform="translate(-72.000000, -76.000000)" fill="#FFFFFF">
            <g id="Group-2" transform="translate(72.000000, 64.000000)">
                <g id="Group-5" transform="translate(0.000000, 12.000000)">
                    <path d="M0,67.2529861 C3.5986156,66.795675 5.88570782,64.705494 7.30353456,61.4747251 C15.0995632,43.7104283 22.9068052,25.9506149 30.7158415,8.19214658 C31.8443616,5.62582395 33.0024851,3.07295165 34.3763552,0 C35.0043076,1.27688449 35.4079912,2.03637969 35.7578504,2.82008548 C41.6242711,15.9718164 47.462434,29.136101 53.3938926,42.2591379 C53.7733553,43.0984384 54.8502936,44.1897083 55.6163955,44.2004686 C63.1634858,44.3089679 70.7231352,44.4479546 78.2599092,44.1224567 C89.9142566,43.6198628 98.845982,34.3368946 96.711841,20.1324513 C95.1639384,9.83129324 87.5989065,3.60020452 77.1210728,3.44418071 C72.3378699,3.37289397 67.5524243,3.41997012 62.7683244,3.42714363 C58.9701096,3.43297211 57.3481984,5.01742077 57.3342937,8.87811332 C57.301999,17.9158372 57.325323,26.9531127 57.3163522,35.9903883 C57.3154551,36.7633338 57.2409979,37.5362793 57.2006296,38.3087765 C57.0028246,38.3441957 56.8054681,38.3796149 56.6081117,38.4150341 C55.5675049,36.1392386 54.6502459,33.7970881 53.4602762,31.6024428 C51.2669282,27.5552391 50.322757,23.3260075 50.6892121,18.7165801 C50.9139293,15.8964946 50.6771016,13.0423349 50.7421395,10.2056607 C50.831847,6.2875801 49.9423973,3.03977418 45.5238553,1.72881552 C46.0585119,1.66156388 46.5922714,1.53602748 47.1264795,1.53557914 C58.788452,1.52526722 70.4526672,1.38897056 82.1114999,1.57503343 C91.0974983,1.71895195 98.3176049,5.37833791 102.0759,13.8888089 C105.905064,22.5593388 105.059571,30.9909013 99.0828097,38.5383288 C95.0141269,43.6772508 89.3037972,45.6835915 82.9282865,46.0467503 C81.5979246,46.1225205 80.2599375,46.0579589 78.9031119,46.0579589 C78.9394434,46.4054257 78.9089429,46.6300462 78.9735323,46.662327 C83.7719854,49.0322748 87.3261958,52.7777429 90.8032578,56.7496248 C92.7678516,58.9940363 95.3321399,60.9102597 97.9767165,62.3180607 C101.852528,64.3826861 105.623382,63.1784334 108.210097,59.6078196 C109.070392,58.4210523 109.729742,57.0885731 111,55.9148078 C110.792327,57.1621016 110.705311,58.4443662 110.358592,59.6517573 C107.680823,68.9643162 96.7284369,72.1067613 89.6464798,65.4533322 C87.1665165,63.123287 84.8516149,60.4336697 83.1332681,57.5136035 C78.0571703,48.8883563 70.648678,45.2782882 60.821672,46.1126569 C59.076413,46.2606105 57.3082785,46.1337291 55.0925038,46.1337291 C55.9379968,48.0495042 56.5874789,49.5276953 57.2423435,51.0036446 C58.482998,53.7999679 59.7191671,56.5980845 60.971035,59.3894759 C63.0558368,64.037461 63.0603222,64.0352193 68.658069,67.902637 L52.3905144,67.902637 C53.3306488,67.357002 53.7984734,67.0911339 54.2609154,66.8167472 C55.8370759,65.8823977 56.4219686,64.5889245 55.6374767,62.8493487 C53.3064278,57.6794909 51.0036368,52.4961827 48.565836,47.3765394 C48.2796691,46.7757581 47.2377167,46.2287781 46.5187113,46.1924622 C43.7597577,46.0534755 40.9877965,46.184392 38.2252547,46.0853079 C37.6748993,46.0660291 37.1447281,45.4800432 36.6055861,45.1549936 C37.1209556,44.8680532 37.629597,44.3488706 38.1530402,44.3336269 C40.9810685,44.2515799 43.8126851,44.2950692 47.2368197,44.2950692 C42.1306699,33.002622 37.2120087,22.1244449 32.0583139,10.7270851 C31.4478545,11.939408 31.0374428,12.6791761 30.6943117,13.4485348 C23.6993708,29.1199606 16.7116066,44.7949731 9.72429093,60.4699856 C7.73368193,64.9350462 7.73682169,64.9363913 11.7785922,68.1492263 L0,68.1492263 L0,67.2529861 Z" id="Fill-1"></path>
                    <path d="M97,2.82130676 C97.5347093,2.30639411 97.6314832,2.1311993 97.7309328,2.12942068 C107.598303,1.97423543 117.490647,1.37795057 126.978057,5.13485646 C146.265943,12.7731722 153.924461,34.9197522 142.970279,51.9100912 C136.884672,61.3497119 127.694719,65.8416356 116.849353,67.4268373 C115.027149,67.6931868 113.180864,67.7990151 111.133449,68 C111.709187,65.7820515 113.403399,66.0684106 114.736382,65.882544 C121.80935,64.897629 128.11437,62.2465848 132.904456,56.8764638 C141.602512,47.1251386 143.418026,35.7677128 139.196989,23.7081739 C135.135607,12.1021849 126.081226,6.08642216 114.172685,4.36648939 C109.793777,3.73374266 105.278405,4.08324296 100.832603,3.85024276 C99.6378693,3.78754614 98.469447,3.23172506 97,2.82130676" id="Fill-3"></path>
                </g>
            </g>
        </g>
    </g>
</svg>