<?xml version="1.0" encoding="UTF-8"?>
<svg width="185px" height="185px" viewBox="0 0 185 185" version="1.1" xmlns="http://www.w3.org/2000/svg" xmlns:xlink="http://www.w3.org/1999/xlink">
    <title>Group 26</title>
    <defs>
        <polygon id="path-1" points="0 0 184.9999 0 184.9999 184.9999 0 184.9999"></polygon>
    </defs>
    <g id="About-Pg" stroke="none" stroke-width="1" fill="none" fill-rule="evenodd">
        <g id="About-Pg-1440-Large-Desktop" transform="translate(-628.000000, -454.000000)">
            <g id="Group-29" transform="translate(186.000000, 454.000000)">
                <g id="Group-26" transform="translate(442.000000, 0.000000)">
                    <path d="M83.5747,92.0381 L83.5747,92.0771 L87.1927,92.0771 C86.9477,85.3431 85.1447,80.2161 83.7877,76.4181 C82.4357,72.6341 81.4587,69.9001 83.4337,68.1731 C85.9677,65.9561 88.4737,68.0421 90.1317,69.4251 C90.9217,70.0841 91.9057,70.9041 92.4377,70.9041 C92.9697,70.9041 93.9527,70.0841 94.7437,69.4251 C96.4027,68.0441 98.9067,65.9531 101.4417,68.1731 C103.4167,69.9001 102.4397,72.6341 101.0867,76.4181 C99.7307,80.2161 97.9267,85.3421 97.6817,92.0771 L101.3007,92.0771 C101.3017,87.3121 103.0807,82.8431 106.3107,79.4921 C109.7807,75.8921 111.6917,71.1601 111.6917,66.1691 C111.6917,60.8321 109.5587,55.8701 105.6847,52.1961 C102.0707,48.7681 97.4037,46.9141 92.4457,46.9141 C92.0937,46.9141 91.7407,46.9241 91.3867,46.9421 C81.4457,47.4701 73.4527,55.6861 73.1907,65.6491 C73.0527,70.8921 74.9967,75.8461 78.6657,79.5971 C81.8317,82.8321 83.5747,87.2511 83.5747,92.0381" id="Fill-1" fill="#C8C8C8"></path>
                    <path d="M99.4658,70.4307 C99.0038,70.0267 98.5578,70.1517 96.6648,71.7297 C95.3818,72.7987 94.0558,73.9047 92.4378,73.9047 C90.8198,73.9047 89.4928,72.7987 88.2108,71.7297 C86.3178,70.1517 85.8718,70.0267 85.4088,70.4307 C84.9708,70.8147 85.9198,73.4697 86.6128,75.4087 C87.9648,79.1917 89.9408,84.8087 90.1918,92.0767 L94.6828,92.0767 C94.9348,84.8087 96.9098,79.1917 98.2628,75.4087 C98.9548,73.4687 99.9038,70.8137 99.4658,70.4307" id="Fill-3" fill="#C8C8C8"></path>
                    <g id="Group-7">
                        <mask id="mask-2" fill="white">
                            <use xlink:href="#path-1"></use>
                        </mask>
                        <g id="Clip-6"></g>
                        <path d="M92.5,5 C44.252,5 5,44.252 5,92.5 C5,140.748 44.252,180 92.5,180 C140.748,180 180,140.748 180,92.5 C180,44.252 140.748,5 92.5,5 M92.5,185 C41.495,185 0,143.505 0,92.5 C0,41.495 41.495,0 92.5,0 C143.505,0 185,41.495 185,92.5 C185,143.505 143.505,185 92.5,185" id="Fill-5" fill="#53575A" mask="url(#mask-2)"></path>
                    </g>
                    <path d="M141.8027,92.5987 C141.7197,90.7417 141.6377,88.8907 141.5697,87.0717 C141.3317,80.8347 140.9367,70.4047 133.7107,70.4047 L133.6697,70.4047 C132.0527,70.4127 130.6217,71.0417 129.5327,72.2237 C127.1847,74.7717 126.3867,79.8117 127.0207,88.0837 C127.1837,90.2177 127.2357,92.2097 127.1687,94.1847 C126.6067,93.8347 125.9817,93.5957 125.3087,93.4937 C123.3797,93.2017 118.4837,93.7457 114.6927,105.1327 C111.3787,115.0807 106.4727,119.2007 102.1437,122.8337 C100.0567,124.5867 98.0847,126.2427 96.4277,128.3747 C94.6977,130.6027 93.4207,133.5087 92.4807,136.5567 C91.6307,133.4447 90.3727,130.5007 88.5197,128.3107 C86.9117,126.4107 85.0867,124.8867 83.1557,123.2737 C78.7367,119.5847 73.7287,115.4047 70.3077,105.1327 C66.5157,93.7477 61.6217,93.2027 59.6907,93.4937 C59.0177,93.5957 58.3917,93.8347 57.8307,94.1847 C57.7627,92.2097 57.8147,90.2177 57.9787,88.0837 C58.6127,79.8117 57.8147,74.7717 55.4667,72.2237 C54.3777,71.0417 52.9467,70.4127 51.3287,70.4047 L51.2887,70.4047 C44.0627,70.4047 43.6667,80.8347 43.4307,87.0717 C43.3617,88.8907 43.2797,90.7407 43.1977,92.5967 C42.6217,105.5717 42.0267,118.9877 45.7937,125.5927 C47.3017,128.2347 50.2487,130.8747 53.6607,133.9327 C59.9297,139.5497 67.0357,145.9157 67.0357,153.7667 C67.0357,154.8707 67.9307,155.7667 69.0357,155.7667 C70.1397,155.7667 71.0357,154.8707 71.0357,153.7667 C71.0357,144.1287 62.8817,136.8237 56.3307,130.9537 C53.3087,128.2457 50.4537,125.6887 49.2687,123.6107 C46.0737,118.0097 46.6427,105.1807 47.1937,92.7747 C47.2757,90.9087 47.3587,89.0507 47.4277,87.2237 C47.7677,78.2407 48.9257,74.4047 51.2957,74.4047 L51.3077,74.4047 C51.8207,74.4077 52.1847,74.5657 52.5247,74.9337 C53.3687,75.8507 54.6827,78.7387 53.9897,87.7777 C53.5127,93.9977 53.8787,99.0727 55.4277,105.6217 C56.6467,112.5877 60.2267,120.3157 66.1427,128.6877 C66.7807,129.5897 68.0287,129.8037 68.9307,129.1667 C69.8327,128.5297 70.0477,127.2817 69.4097,126.3787 C65.5477,120.9147 62.7217,115.6837 60.9857,110.8477 C60.3487,108.7147 59.8177,106.7697 59.3827,104.9497 C59.0727,103.2127 58.9207,101.5427 58.9527,99.9577 C58.9797,98.6607 59.5677,97.5577 60.2917,97.4477 C61.5167,97.2637 64.2107,99.4867 66.5127,106.3967 C70.2927,117.7457 76.0037,122.5137 80.5917,126.3447 C82.3867,127.8427 84.0817,129.2577 85.4667,130.8947 C89.0827,135.1677 89.9737,143.5737 90.1577,148.8877 C89.8957,151.6127 89.8537,153.5027 89.8497,153.7307 C89.8407,154.2677 90.0467,154.7857 90.4227,155.1677 C90.7987,155.5507 91.3127,155.7667 91.8497,155.7667 L92.1497,155.7667 C93.2117,155.7667 94.0877,154.9377 94.1467,153.8767 C94.1587,153.6467 94.2557,151.7517 94.1707,149.0267 C94.6977,143.7367 96.0657,135.3597 99.5857,130.8297 C100.9827,129.0327 102.7957,127.5097 104.7157,125.8977 C109.2157,122.1197 114.8167,117.4167 118.4877,106.3967 C120.7877,99.4857 123.4827,97.2617 124.7077,97.4477 C125.4327,97.5577 126.0207,98.6607 126.0457,99.9587 C126.0777,101.5447 125.9267,103.2157 125.6157,104.9527 C125.1817,106.7707 124.6517,108.7127 124.0157,110.8407 C122.2807,115.6787 119.4527,120.9117 115.5897,126.3787 C114.9517,127.2817 115.1657,128.5297 116.0687,129.1657 C116.9717,129.8047 118.2187,129.5887 118.8557,128.6877 C124.7757,120.3127 128.3567,112.5807 129.5737,105.6127 C131.1197,99.0677 131.4857,93.9947 131.0087,87.7777 C130.3157,78.7387 131.6297,75.8507 132.4747,74.9337 C132.8147,74.5657 133.1777,74.4077 133.6917,74.4047 L133.7027,74.4047 C136.0737,74.4047 137.2307,78.2407 137.5717,87.2237 C137.6407,89.0507 137.7237,90.9107 137.8067,92.7767 C138.3567,105.1817 138.9257,118.0097 135.7307,123.6107 C134.5447,125.6897 131.6907,128.2457 128.6687,130.9537 C122.1167,136.8247 113.9637,144.1287 113.9637,153.7667 C113.9637,154.8707 114.8597,155.7667 115.9637,155.7667 C117.0687,155.7667 117.9637,154.8707 117.9637,153.7667 C117.9637,145.9157 125.0697,139.5497 131.3377,133.9337 C134.7507,130.8757 137.6987,128.2347 139.2047,125.5927 C142.9737,118.9887 142.3777,105.5727 141.8027,92.5987" id="Fill-8" fill="#53575A"></path>
                    <path d="M91.3862,46.9424 C91.7402,46.9234 92.0942,46.9144 92.4462,46.9144 C97.4032,46.9144 102.0702,48.7684 105.6842,52.1964 C109.5582,55.8704 111.6912,60.8324 111.6912,66.1694 C111.6912,71.1604 109.7802,75.8914 106.3102,79.4924 C103.0812,82.8424 101.3022,87.3124 101.3012,92.0774 L97.6812,92.0774 C97.9272,85.3424 99.7302,80.2154 101.0872,76.4184 C102.4392,72.6334 103.4172,69.9004 101.4412,68.1724 C98.9062,65.9534 96.4022,68.0444 94.7442,69.4244 C93.9532,70.0844 92.9692,70.9044 92.4372,70.9044 C91.9062,70.9044 90.9222,70.0844 90.1312,69.4244 C88.4732,68.0424 85.9672,65.9564 83.4342,68.1724 C81.4582,69.9004 82.4352,72.6334 83.7872,76.4184 C85.1442,80.2154 86.9482,85.3434 87.1932,92.0774 L83.5742,92.0774 L83.5742,92.0384 C83.5742,87.2514 81.8312,82.8324 78.6662,79.5964 C74.9972,75.8454 73.0532,70.8924 73.1912,65.6494 C73.4532,55.6864 81.4462,47.4694 91.3862,46.9424 L91.3862,46.9424 Z M92.5002,109.9754 C89.5092,109.9754 86.9412,108.1364 85.8622,105.5304 C86.3152,105.6144 86.7812,105.6644 87.2582,105.6644 L97.6172,105.6644 C98.1402,105.6644 98.6512,105.6104 99.1452,105.5104 C98.0712,108.1274 95.4992,109.9754 92.5002,109.9754 L92.5002,109.9754 Z M101.3012,95.0774 L101.3012,97.9804 C101.3012,100.0114 99.6482,101.6644 97.6172,101.6644 L87.2582,101.6644 C85.2272,101.6644 83.5742,100.0114 83.5742,97.9804 L83.5742,95.0774 L101.3012,95.0774 Z M90.1922,92.0774 C89.9402,84.8084 87.9642,79.1914 86.6132,75.4084 C85.9202,73.4694 84.9702,70.8144 85.4092,70.4304 C85.8712,70.0264 86.3172,70.1514 88.2102,71.7294 C89.4932,72.7984 90.8192,73.9044 92.4372,73.9044 C94.0552,73.9044 95.3822,72.7984 96.6652,71.7294 C98.5572,70.1514 99.0042,70.0264 99.4662,70.4304 C99.9042,70.8134 98.9552,73.4684 98.2622,75.4084 C96.9102,79.1914 94.9342,84.8084 94.6822,92.0774 L90.1922,92.0774 Z M75.8062,82.3934 C78.2012,84.8414 79.5742,88.3564 79.5742,92.0384 L79.5742,97.9804 C79.5742,100.3664 80.6682,102.5024 82.3812,103.9134 C82.9422,109.0024 87.2632,112.9754 92.5002,112.9754 C97.7782,112.9754 102.1312,108.9374 102.6332,103.7874 C104.2632,102.3784 105.3012,100.2994 105.3012,97.9804 L105.3012,92.0824 C105.3012,88.3554 106.6822,84.8704 109.1912,82.2674 C113.3832,77.9184 115.6912,72.2004 115.6912,66.1694 C115.6912,59.7234 113.1152,53.7304 108.4372,49.2944 C103.7612,44.8604 97.6332,42.6114 91.1742,42.9484 C79.1652,43.5854 69.5092,53.5104 69.1922,65.5444 C69.0252,71.8794 71.3742,77.8624 75.8062,82.3934 L75.8062,82.3934 Z" id="Fill-10" fill="#53575A"></path>
                    <path d="M92.5,37.5469 C93.329,37.5469 94,36.8749 94,36.0469 L94,28.7339 C94,27.9049 93.329,27.2339 92.5,27.2339 C91.671,27.2339 91,27.9049 91,28.7339 L91,36.0469 C91,36.8749 91.671,37.5469 92.5,37.5469" id="Fill-12" fill="#53575A"></path>
                    <path d="M111.9893,43.8164 C112.3553,43.8164 112.7223,43.6824 113.0113,43.4134 L117.8333,38.9184 C118.4393,38.3534 118.4723,37.4044 117.9073,36.7984 C117.3433,36.1914 116.3933,36.1594 115.7883,36.7244 L110.9673,41.2194 C110.3603,41.7844 110.3273,42.7334 110.8923,43.3384 C111.1873,43.6564 111.5883,43.8164 111.9893,43.8164" id="Fill-14" fill="#53575A"></path>
                    <path d="M118.3467,57.0625 C118.5337,57.7225 119.1357,58.1535 119.7887,58.1535 C119.9247,58.1535 120.0627,58.1345 120.1997,58.0965 L126.3287,56.3595 C127.1257,56.1325 127.5887,55.3035 127.3637,54.5065 C127.1367,53.7095 126.3037,53.2505 125.5107,53.4725 L119.3807,55.2095 C118.5837,55.4365 118.1207,56.2655 118.3467,57.0625" id="Fill-16" fill="#53575A"></path>
                    <path d="M119.2432,73.3643 C118.4502,73.1253 117.6132,73.5723 117.3732,74.3653 C117.1332,75.1583 117.5812,75.9963 118.3742,76.2353 L123.3052,77.7263 C123.4512,77.7703 123.5972,77.7913 123.7412,77.7913 C124.3852,77.7913 124.9802,77.3733 125.1762,76.7253 C125.4162,75.9323 124.9682,75.0943 124.1752,74.8553 L119.2432,73.3643 Z" id="Fill-18" fill="#53575A"></path>
                    <path d="M71.9878,43.4141 C72.2768,43.6831 72.6438,43.8161 73.0098,43.8161 C73.4118,43.8161 73.8128,43.6561 74.1078,43.3391 C74.6728,42.7331 74.6398,41.7841 74.0338,41.2191 L69.2118,36.7241 C68.6048,36.1601 67.6558,36.1921 67.0918,36.7991 C66.5268,37.4041 66.5598,38.3531 67.1658,38.9191 L71.9878,43.4141 Z" id="Fill-20" fill="#53575A"></path>
                    <path d="M58.6699,56.3594 L64.7999,58.0964 C64.9369,58.1344 65.0749,58.1534 65.2109,58.1534 C65.8639,58.1534 66.4649,57.7224 66.6529,57.0624 C66.8779,56.2654 66.4159,55.4354 65.6189,55.2104 L59.4879,53.4724 C58.6939,53.2514 57.8619,53.7104 57.6359,54.5064 C57.4099,55.3034 57.8729,56.1334 58.6699,56.3594" id="Fill-22" fill="#53575A"></path>
                    <path d="M65.7568,73.3643 L60.8258,74.8553 C60.0328,75.0943 59.5838,75.9323 59.8238,76.7253 C60.0198,77.3733 60.6148,77.7913 61.2588,77.7913 C61.4028,77.7913 61.5488,77.7703 61.6938,77.7263 L66.6248,76.2353 C67.4178,75.9963 67.8668,75.1583 67.6268,74.3653 C67.3868,73.5733 66.5498,73.1223 65.7568,73.3643" id="Fill-24" fill="#53575A"></path>
                </g>
            </g>
        </g>
    </g>
</svg>