<?xml version="1.0" encoding="UTF-8"?>
<svg width="185px" height="185px" viewBox="0 0 185 185" version="1.1" xmlns="http://www.w3.org/2000/svg" xmlns:xlink="http://www.w3.org/1999/xlink">
    <title>Group 16</title>
    <defs>
        <polygon id="path-1" points="0 0 184.9999 0 184.9999 184.9999 0 184.9999"></polygon>
    </defs>
    <g id="About-Pg" stroke="none" stroke-width="1" fill="none" fill-rule="evenodd">
        <g id="About-Pg-1440-Large-Desktop" transform="translate(-186.000000, -454.000000)">
            <g id="Group-29" transform="translate(186.000000, 454.000000)">
                <g id="Group-16" transform="translate(-0.000000, 0.000000)">
                    <path d="M53.9294,71.0804 C53.4784,65.9634 55.1464,61.5554 58.7514,58.3354 C61.7194,55.6834 64.6914,54.8854 67.1954,54.8854 C68.3444,54.8854 69.3964,55.0534 70.3014,55.2884 C75.0904,56.5294 79.4444,60.6284 81.1344,65.4894 C81.4144,66.2934 82.1724,66.8324 83.0234,66.8324 C83.8754,66.8324 84.6334,66.2934 84.9134,65.4894 C86.6704,60.4354 91.3964,56.1034 96.4044,54.9554 C99.1904,54.3154 103.3274,54.3714 107.2154,58.2574 C110.6234,61.6654 112.0934,66.3074 111.4674,71.6824 C110.1254,83.2094 99.5224,96.2354 83.0234,106.6934 C65.7844,95.7864 54.9374,82.5324 53.9294,71.0804 Z" id="Fill-1" fill="#C8C8C8"></path>
                    <path d="M136.1992,65.1338 L131.2472,65.1338 L131.2472,105.6988 C131.2472,113.4188 124.9672,119.6988 117.2472,119.6988 L93.6562,119.6988 C90.5292,119.6988 87.5532,120.8808 85.2762,123.0258 L81.5092,126.5758 C84.9412,126.6218 87.7622,126.7448 90.1082,126.9408 C90.4492,126.6698 90.8742,126.5018 91.3442,126.5018 C95.4952,126.5018 99.4452,128.0708 102.4672,130.9178 L119.9772,147.4208 L119.9772,135.6598 C119.9772,132.8218 121.2832,130.2838 123.3242,128.6128 C124.9042,127.2968 126.9332,126.5018 129.1452,126.5018 L136.1992,126.5018 C138.5982,126.5018 140.8012,125.6518 142.5262,124.2388 C144.7302,122.4028 146.1372,119.6398 146.1372,116.5538 L146.1992,75.1338 C146.1992,69.6198 141.7132,65.1338 136.1992,65.1338" id="Fill-3" fill="#C8C8C8"></path>
                    <g id="Group-7">
                        <mask id="mask-2" fill="white">
                            <use xlink:href="#path-1"></use>
                        </mask>
                        <g id="Clip-6"></g>
                        <path d="M92.5,5 C44.252,5 5,44.252 5,92.5 C5,140.748 44.252,180 92.5,180 C140.748,180 180,140.748 180,92.5 C180,44.252 140.748,5 92.5,5 M92.5,185 C41.495,185 0,143.505 0,92.5 C0,41.495 41.495,0 92.5,0 C143.505,0 185,41.495 185,92.5 C185,143.505 143.505,185 92.5,185" id="Fill-5" fill="#53575A" mask="url(#mask-2)"></path>
                    </g>
                    <path d="M48.8008,40.8868 C43.2868,40.8868 38.8008,45.3728 38.8008,50.8868 L38.8008,105.6988 C38.8008,111.2128 43.2868,115.6988 48.8008,115.6988 L55.8548,115.6988 C60.8758,115.6988 64.9608,119.7838 64.9608,124.8058 L64.9608,136.6768 L82.5328,120.1158 C85.5538,117.2678 89.5048,115.6988 93.6558,115.6988 L117.2468,115.6988 C122.7608,115.6988 127.2468,111.2128 127.2468,105.6988 L127.2468,50.8868 C127.2468,45.3728 122.7608,40.8868 117.2468,40.8868 L48.8008,40.8868 Z M62.9598,143.3098 C62.6928,143.3098 62.4228,143.2558 62.1678,143.1458 C61.4348,142.8288 60.9608,142.1078 60.9608,141.3098 L60.9608,124.8058 C60.9608,121.9908 58.6698,119.6988 55.8548,119.6988 L48.8008,119.6988 C41.0808,119.6988 34.8008,113.4188 34.8008,105.6988 L34.8008,50.8868 C34.8008,43.1668 41.0808,36.8868 48.8008,36.8868 L117.2468,36.8868 C124.9668,36.8868 131.2468,43.1668 131.2468,50.8868 L131.2468,105.6988 C131.2468,113.4188 124.9668,119.6988 117.2468,119.6988 L93.6558,119.6988 C90.5288,119.6988 87.5528,120.8808 85.2768,123.0258 L64.3318,142.7648 C63.9538,143.1218 63.4608,143.3098 62.9598,143.3098 L62.9598,143.3098 Z" id="Fill-8" fill="#53575A"></path>
                    <path d="M122.04,154.1123 C121.54,154.1123 121.046,153.9253 120.668,153.5673 L99.724,133.8283 C97.447,131.6833 94.471,130.5023 91.344,130.5023 C90.239,130.5023 89.344,129.6063 89.344,128.5023 C89.344,127.3973 90.239,126.5023 91.344,126.5023 C95.495,126.5023 99.445,128.0703 102.467,130.9183 L120.04,147.4793 L120.04,135.6083 C120.04,130.5873 124.124,126.5023 129.145,126.5023 L136.199,126.5023 C141.713,126.5023 146.199,122.0153 146.199,116.5023 L146.199,75.1333 C146.199,69.6203 141.713,65.1333 136.199,65.1333 C135.095,65.1333 134.199,64.2383 134.199,63.1333 C134.199,62.0293 135.095,61.1333 136.199,61.1333 C143.919,61.1333 150.199,67.4143 150.199,75.1333 L150.199,116.5023 C150.199,124.2213 143.919,130.5023 136.199,130.5023 L129.145,130.5023 C126.33,130.5023 124.04,132.7933 124.04,135.6083 L124.04,152.1123 C124.04,152.9103 123.565,153.6323 122.832,153.9483 C122.577,154.0583 122.308,154.1123 122.04,154.1123" id="Fill-10" fill="#53575A"></path>
                    <path d="M67.1953,54.8858 C64.6913,54.8858 61.7193,55.6838 58.7513,58.3348 C55.1463,61.5558 53.4783,65.9628 53.9293,71.0798 C54.9373,82.5318 65.7843,95.7858 83.0233,106.6938 C99.5223,96.2358 110.1253,83.2088 111.4673,71.6828 C112.0933,66.3078 110.6233,61.6648 107.2163,58.2578 C103.3273,54.3708 99.1903,54.3158 96.4043,54.9548 C91.3963,56.1038 86.6713,60.4358 84.9133,65.4898 C84.6333,66.2928 83.8753,66.8318 83.0243,66.8318 C82.1733,66.8318 81.4143,66.2928 81.1343,65.4898 C79.4443,60.6278 75.0913,56.5298 70.3013,55.2878 C69.3963,55.0538 68.3443,54.8858 67.1953,54.8858 M81.9723,110.7538 C63.0563,99.0648 51.0833,84.3648 49.9443,71.4308 C49.3793,65.0068 51.5023,59.4478 56.0863,55.3528 C60.4943,51.4128 65.8993,50.0158 71.3053,51.4158 C76.0613,52.6488 80.3453,55.9458 83.0263,60.2458 C85.8623,55.7038 90.5013,52.2048 95.5103,51.0568 C100.8413,49.8318 106.0013,51.3878 110.0443,55.4298 C114.3463,59.7318 116.2123,65.5118 115.4403,72.1458 C113.9073,85.3118 102.4753,99.3838 84.0753,110.7538 C83.7533,110.9528 83.3883,111.0528 83.0243,111.0528 C82.6593,111.0528 82.2953,110.9528 81.9723,110.7538 Z" id="Fill-12" fill="#53575A"></path>
                    <path d="M105.1953,73.1973 C105.0613,73.1973 104.9263,73.1793 104.7913,73.1423 C103.9933,72.9203 103.5273,72.0933 103.7493,71.2943 C104.4673,68.7193 103.7143,66.1823 101.7353,64.5083 C99.9643,63.0093 97.7093,62.6203 95.8503,63.4923 C95.1023,63.8453 94.2073,63.5203 93.8553,62.7703 C93.5033,62.0203 93.8263,61.1273 94.5763,60.7753 C97.5113,59.4003 100.9953,59.9533 103.6723,62.2183 C106.5283,64.6343 107.6653,68.4213 106.6393,72.1003 C106.4543,72.7633 105.8513,73.1973 105.1953,73.1973" id="Fill-14" fill="#53575A"></path>
                </g>
            </g>
        </g>
    </g>
</svg>