<?xml version="1.0" encoding="UTF-8"?>
<svg width="185px" height="24px" viewBox="0 0 185 24" version="1.1" xmlns="http://www.w3.org/2000/svg" xmlns:xlink="http://www.w3.org/1999/xlink">
    <title>main-logo-sm</title>
    <g id="Home-Pg" stroke="none" stroke-width="1" fill="none" fill-rule="evenodd">
        <g id="Home-Pg-1024-Small-Desktop" transform="translate(-34.000000, -1621.000000)" fill="#54585B" fill-rule="nonzero">
            <g id="main-logo-sm" transform="translate(34.000000, 1621.000000)">
                <path d="M2.78453923,5.14092974 L5.32241219,5.14092974 L4.05898165,2.07181618 L2.78453923,5.14092974 Z M2.20311158,6.55884997 L1.4359501,8.41991597 C1.36180339,8.62978863 1.15110928,8.76507241 0.927935035,8.76507241 L0.483054789,8.76507241 C0.198213971,8.76507241 -2.90256708e-12,8.54276826 -2.90256708e-12,8.28463219 C-2.90256708e-12,8.23490626 0.0124801389,8.17348011 0.0367062909,8.11205397 L3.28007416,0.456454773 C3.36596688,0.247313368 3.57666099,0.111298328 3.79983524,0.111298328 L4.3930089,0.111298328 C4.61618315,0.111298328 4.82614313,0.247313368 4.91276998,0.456454773 L8.15613785,8.11205397 C8.180364,8.17348011 8.19284414,8.23490626 8.19284414,8.28463219 C8.19284414,8.54276826 7.99463017,8.76507241 7.70978935,8.76507241 L7.17828226,8.76507241 C6.95510801,8.76507241 6.74514802,8.62978863 6.67100132,8.41991597 L5.90383984,6.55884997 L2.20311158,6.55884997 Z" id="Fill-6"></path>
                <path d="M13.0450487,8.30949515 C13.0450487,8.55593101 12.8343546,8.76507241 12.5869542,8.76507241 L11.9805663,8.76507241 C11.7331659,8.76507241 11.5224718,8.55593101 11.5224718,8.30949515 L11.5224718,0.591738549 C11.5224718,0.345302697 11.7331659,0.135430029 11.9805663,0.135430029 L12.6867953,0.135430029 C12.9092355,0.135430029 13.1441557,0.259013586 13.279969,0.444023291 L16.0153218,4.16688655 L18.6273415,0.444023291 C18.7506746,0.259013586 18.9855949,0.135430029 19.2087691,0.135430029 L19.815157,0.135430029 C20.0625574,0.135430029 20.2732516,0.345302697 20.2732516,0.591738549 L20.2732516,8.30949515 C20.2732516,8.55593101 20.0625574,8.76507241 19.815157,8.76507241 L19.2212493,8.76507241 C18.9731147,8.76507241 18.7631547,8.55593101 18.7631547,8.30949515 L18.7631547,2.5281247 L16.4983766,5.69595885 C16.3368689,5.91753174 16.1269089,6.02868382 15.9169489,6.02868382 C15.7062548,6.02868382 15.4830806,5.91753174 15.322307,5.69595885 L13.0450487,2.56468789 L13.0450487,8.30949515 Z" id="Fill-8"></path>
                <path d="M26.3876387,5.14092974 L28.9255116,5.14092974 L27.6628152,2.07181618 L26.3876387,5.14092974 Z M25.806211,6.55884997 L25.0390495,8.41991597 C24.9649028,8.62978863 24.7542087,8.76507241 24.5310345,8.76507241 L24.0861542,8.76507241 C23.8013134,8.76507241 23.6038336,8.54276826 23.6038336,8.28463219 C23.6038336,8.23490626 23.6155796,8.17348011 23.6405399,8.11205397 L26.8831736,0.456454773 C26.9690663,0.247313368 27.1797604,0.111298328 27.4029347,0.111298328 L27.9968425,0.111298328 C28.2192826,0.111298328 28.4299767,0.247313368 28.5166035,0.456454773 L31.7592373,8.11205397 C31.7834634,8.17348011 31.7966777,8.23490626 31.7966777,8.28463219 C31.7966777,8.54276826 31.5977296,8.76507241 31.3136229,8.76507241 L30.7813817,8.76507241 C30.5589416,8.76507241 30.3482475,8.62978863 30.2741008,8.41991597 L29.5069393,6.55884997 L25.806211,6.55884997 Z" id="Fill-10"></path>
                <path d="M42.0692269,0.135576281 C42.3166273,0.135576281 42.5273214,0.34544895 42.5273214,0.591884802 L42.5273214,8.30964141 C42.5273214,8.55607726 42.3166273,8.76521866 42.0692269,8.76521866 L41.6360926,8.76521866 C41.4136525,8.76521866 41.2279187,8.65406659 41.0796253,8.46905688 L36.5493348,2.78640703 L36.5493348,8.30964141 C36.5493348,8.55607726 36.3393749,8.76521866 36.0912403,8.76521866 L35.5839594,8.76521866 C35.336559,8.76521866 35.1258649,8.55607726 35.1258649,8.30964141 L35.1258649,0.591884802 C35.1258649,0.34544895 35.336559,0.135576281 35.5839594,0.135576281 L36.0178277,0.135576281 C36.2402679,0.135576281 36.4260017,0.246728357 36.5742951,0.431738061 L41.1045855,6.13925088 L41.1045855,0.591884802 C41.1045855,0.34544895 41.3145455,0.135576281 41.5619459,0.135576281 L42.0692269,0.135576281 Z" id="Fill-12"></path>
                <path d="M48.307461,7.34751782 C48.7281151,7.37238078 49.0753566,7.37238078 49.2853166,7.37238078 C51.3768411,7.37238078 52.5896169,6.18846493 52.5896169,4.36469337 C52.5896169,2.6257484 51.3768411,1.51642144 49.3102769,1.51642144 C48.9512894,1.51642144 48.6547025,1.52885292 48.307461,1.55371589 L48.307461,7.34751782 Z M49.334503,0.0992324779 C52.800311,0.0992324779 54.1988207,2.08388203 54.1988207,4.36469337 C54.1988207,6.7924887 52.5404305,8.79030101 49.2361302,8.79030101 C48.8029959,8.79030101 48.0475805,8.77786952 47.2429786,8.76470678 C46.9955782,8.76470678 46.7848841,8.55556537 46.7848841,8.30912952 L46.7848841,0.592104181 C46.7848841,0.345668329 46.9838322,0.135795661 47.2429786,0.135795661 C47.9242473,0.123364178 48.8272221,0.0992324779 49.334503,0.0992324779 L49.334503,0.0992324779 Z" id="Fill-14"></path>
                <path d="M59.3727927,5.14092974 L61.9106656,5.14092974 L60.6479692,2.07181618 L59.3727927,5.14092974 Z M58.791365,6.55884997 L58.0242035,8.41991597 C57.9500568,8.62978863 57.7393627,8.76507241 57.5161885,8.76507241 L57.0713082,8.76507241 C56.7864674,8.76507241 56.5889876,8.54276826 56.5889876,8.28463219 C56.5889876,8.23490626 56.6007336,8.17348011 56.6256938,8.11205397 L59.8683276,0.456454773 C59.9542203,0.247313368 60.1649144,0.111298328 60.3880887,0.111298328 L60.9819965,0.111298328 C61.2044366,0.111298328 61.4151307,0.247313368 61.5017575,0.456454773 L64.7443913,8.11205397 C64.7686174,8.17348011 64.7818317,8.23490626 64.7818317,8.28463219 C64.7818317,8.54276826 64.5836177,8.76507241 64.2987769,8.76507241 L63.7672698,8.76507241 C63.5440956,8.76507241 63.3334015,8.62978863 63.2592547,8.41991597 L62.4920933,6.55884997 L58.791365,6.55884997 Z" id="Fill-16"></path>
                <path d="M75.1048887,4.11825752 C75.9836373,4.11825752 76.7625448,3.67438048 76.7625448,2.78662641 C76.7625448,2.10801374 76.3918113,1.52885292 75.153341,1.52885292 C74.8692343,1.52885292 74.5234611,1.5412844 74.114553,1.55371589 L74.114553,4.11825752 L75.1048887,4.11825752 Z M75.1790354,5.53544648 L74.114553,5.53544648 L74.114553,8.30912952 C74.114553,8.55556537 73.9038589,8.76470678 73.6564585,8.76470678 L73.0500706,8.76470678 C72.8026702,8.76470678 72.591976,8.55556537 72.591976,8.30912952 L72.591976,0.592104181 C72.591976,0.345668329 72.79019,0.135795661 73.0500706,0.135795661 C73.7930059,0.123364178 75.0300079,0.11166396 75.2282219,0.11166396 C77.5928411,0.11166396 78.3717486,1.28241707 78.3717486,2.77419492 C78.3717486,4.2535413 77.4188533,4.99284885 76.7008783,5.2392847 L78.8548034,8.05026219 C78.928216,8.1365513 78.9531763,8.23527189 78.9531763,8.321561 C78.9531763,8.55556537 78.7681766,8.76470678 78.508296,8.76470678 L77.9386144,8.76470678 C77.7161743,8.76470678 77.481254,8.64258575 77.3447066,8.45757604 L75.1790354,5.53544648 Z" id="Fill-18"></path>
                <path d="M84.2760289,5.14092974 L86.8139019,5.14092974 L85.5504713,2.07181618 L84.2760289,5.14092974 Z M83.6946013,6.55884997 L82.9274398,8.41991597 C82.8532931,8.62978863 82.642599,8.76507241 82.4194247,8.76507241 L81.9745445,8.76507241 C81.6897037,8.76507241 81.4922238,8.54276826 81.4922238,8.28463219 C81.4922238,8.23490626 81.5039698,8.17348011 81.5289301,8.11205397 L84.7715639,0.456454773 C84.8574566,0.247313368 85.0681507,0.111298328 85.2913249,0.111298328 L85.8852327,0.111298328 C86.1076728,0.111298328 86.318367,0.247313368 86.4049938,0.456454773 L89.6476275,8.11205397 C89.6718537,8.17348011 89.685068,8.23490626 89.685068,8.28463219 C89.685068,8.54276826 89.4861199,8.76507241 89.2020132,8.76507241 L88.669772,8.76507241 C88.4465977,8.76507241 88.2366377,8.62978863 88.162491,8.41991597 L87.3953295,6.55884997 L83.6946013,6.55884997 Z" id="Fill-20"></path>
                <path d="M99.9576171,0.135576281 C100.205018,0.135576281 100.414978,0.34544895 100.414978,0.591884802 L100.414978,8.30964141 C100.414978,8.55607726 100.205018,8.76521866 99.9576171,8.76521866 L99.5244829,8.76521866 C99.3013086,8.76521866 99.1163089,8.65406659 98.9672814,8.46905688 L94.4377251,2.78640703 L94.4377251,8.30964141 C94.4377251,8.55607726 94.227031,8.76521866 93.9796306,8.76521866 L93.4723496,8.76521866 C93.2249492,8.76521866 93.0142551,8.55607726 93.0142551,8.30964141 L93.0142551,0.591884802 C93.0142551,0.34544895 93.2249492,0.135576281 93.4723496,0.135576281 L93.906218,0.135576281 C94.1286581,0.135576281 94.314392,0.246728357 94.4626854,0.431738061 L98.9929758,6.13925088 L98.9929758,0.591884802 C98.9929758,0.34544895 99.2029358,0.135576281 99.4510703,0.135576281 L99.9576171,0.135576281 Z" id="Fill-22"></path>
                <path d="M108.572143,7.48324035 C109.240198,7.48324035 110.045534,7.19951005 110.366347,6.89164805 L110.366347,5.53588524 L108.733651,5.53588524 C108.48625,5.53588524 108.275556,5.32601257 108.275556,5.07957672 L108.275556,4.57354227 C108.275556,4.32783768 108.48625,4.11796502 108.733651,4.11796502 L111.332456,4.11796502 C111.579857,4.11796502 111.789817,4.32783768 111.789817,4.57354227 L111.789817,7.35965679 C111.789817,7.61925539 111.654003,7.8283968 111.50571,7.93954887 C110.713588,8.55600413 109.500812,8.90042931 108.547917,8.90042931 C105.713457,8.90042931 104.030107,7.13808391 104.030107,4.45142124 C104.030107,1.97243745 105.700977,0.000219379097 108.348969,0.000219379097 C109.413451,0.000219379097 110.144641,0.160366119 110.947774,0.653237822 C111.047615,0.715395233 111.109282,0.83897879 111.109282,0.97499383 C111.109282,1.0481202 111.085056,1.14684079 111.034401,1.2331299 L110.76204,1.67700694 C110.675414,1.82545346 110.540334,1.88687961 110.392041,1.88687961 C110.30468,1.88687961 110.206307,1.86201664 110.1072,1.81229071 C109.660852,1.57828634 109.11613,1.4181396 108.534703,1.4181396 C106.864566,1.4181396 105.63931,2.52819783 105.63931,4.45142124 C105.63931,6.28762428 106.814646,7.48324035 108.572143,7.48324035" id="Fill-24"></path>
                <path d="M119.388973,7.48324035 C121.208871,7.48324035 122.298314,6.1523405 122.298314,4.45142124 C122.298314,2.66275034 121.023137,1.4181396 119.388973,1.4181396 C117.731317,1.4181396 116.493581,2.66275034 116.493581,4.45142124 C116.493581,6.1764722 117.768023,7.48324035 119.388973,7.48324035 M119.388973,0.000219379097 C121.963552,0.000219379097 123.906049,1.76329605 123.906049,4.45142124 C123.906049,7.04009458 121.963552,8.90042931 119.388973,8.90042931 C116.815128,8.90042931 114.884377,7.13808391 114.884377,4.45142124 C114.884377,1.94830575 116.728501,0.000219379097 119.388973,0.000219379097" id="Fill-26"></path>
                <path d="M133.523758,7.34751782 C133.945147,7.37238078 134.292388,7.37238078 134.501614,7.37238078 C136.593872,7.37238078 137.806648,6.18846493 137.806648,4.36469337 C137.806648,2.6257484 136.593872,1.51642144 134.526574,1.51642144 C134.167587,1.51642144 133.871,1.52885292 133.523758,1.55371589 L133.523758,7.34751782 Z M134.551534,0.0992324779 C138.016608,0.0992324779 139.415118,2.08388203 139.415118,4.36469337 C139.415118,6.7924887 137.756728,8.79030101 134.453162,8.79030101 C134.020027,8.79030101 133.263878,8.77786952 132.46001,8.76470678 C132.21261,8.76470678 132.001915,8.55556537 132.001915,8.30912952 L132.001915,0.592104181 C132.001915,0.345668329 132.200129,0.135795661 132.46001,0.135795661 C133.141279,0.123364178 134.043519,0.0992324779 134.551534,0.0992324779 L134.551534,0.0992324779 Z" id="Fill-28"></path>
                <path d="M148.166852,8.30949515 C148.166852,8.55593101 147.956158,8.76507241 147.708758,8.76507241 L143.488268,8.76507241 C143.240868,8.76507241 143.030174,8.55593101 143.030174,8.30949515 L143.030174,0.591738549 C143.030174,0.345302697 143.240868,0.135430029 143.488268,0.135430029 L147.58469,0.135430029 C147.832825,0.135430029 148.042785,0.345302697 148.042785,0.591738549 L148.042785,1.097773 C148.042785,1.34420885 147.832825,1.55408152 147.58469,1.55408152 L144.552751,1.55408152 L144.552751,3.69814655 L147.213957,3.69814655 C147.461357,3.69814655 147.671317,3.90801922 147.671317,4.15445507 L147.671317,4.66048952 C147.671317,4.90692537 147.461357,5.11606678 147.213957,5.11606678 L144.552751,5.11606678 L144.552751,7.34788345 L147.708758,7.34788345 C147.956158,7.34788345 148.166852,7.55702485 148.166852,7.80419197 L148.166852,8.30949515 Z" id="Fill-30"></path>
                <path d="M151.879767,6.79270808 C151.978874,6.69398749 152.077981,6.65669304 152.188834,6.65669304 C152.313635,6.65669304 152.436968,6.70641897 152.536075,6.79270808 C153.092543,7.2490166 153.624784,7.48302097 154.107105,7.48302097 C154.82508,7.48302097 155.369801,7.12543305 155.369801,6.47314587 C155.369801,4.77076408 151.446633,5.19050942 151.446633,2.37953193 C151.446633,1.08519526 152.461195,1.44950718e-12 154.144545,1.44950718e-12 C154.936667,1.44950718e-12 155.555535,0.160878004 156.211109,0.530897413 C156.347657,0.604023778 156.434283,0.764901782 156.434283,0.925048522 C156.434283,0.998906151 156.409323,1.07276378 156.372617,1.13492119 L156.136962,1.54077252 C156.037855,1.70165052 155.889562,1.78793963 155.728789,1.78793963 C155.654642,1.78793963 155.580495,1.77550815 155.505614,1.73894497 C155.04752,1.51664082 154.64008,1.41792023 154.268612,1.41792023 C153.513931,1.41792023 153.055836,1.80037112 153.055836,2.36710045 C153.055836,4.15504008 156.979005,3.58757949 156.979005,6.45998312 C156.979005,7.91446653 155.703828,8.9009412 154.082878,8.9009412 C153.142463,8.9009412 152.375302,8.64207386 151.521513,7.85304038 C151.421672,7.76675127 151.360006,7.63073623 151.360006,7.49545245 C151.360006,7.39673186 151.396712,7.29801127 151.470859,7.22415364 L151.879767,6.79270808 Z" id="Fill-32"></path>
                <path d="M162.300977,8.30949515 C162.300977,8.55593101 162.091017,8.76507241 161.842882,8.76507241 L161.237228,8.76507241 C160.989094,8.76507241 160.779134,8.55593101 160.779134,8.30949515 L160.779134,0.591738549 C160.779134,0.345302697 160.989094,0.135430029 161.237228,0.135430029 L161.842882,0.135430029 C162.091017,0.135430029 162.300977,0.345302697 162.300977,0.591738549 L162.300977,8.30949515 Z" id="Fill-34"></path>
                <path d="M170.642995,7.48324035 C171.31105,7.48324035 172.116386,7.19951005 172.437199,6.89164805 L172.437199,5.53588524 L170.804503,5.53588524 C170.557102,5.53588524 170.347142,5.32601257 170.347142,5.07957672 L170.347142,4.57354227 C170.347142,4.32783768 170.557102,4.11796502 170.804503,4.11796502 L173.403308,4.11796502 C173.650708,4.11796502 173.861403,4.32783768 173.861403,4.57354227 L173.861403,7.35965679 C173.861403,7.61925539 173.724855,7.8283968 173.576562,7.93954887 C172.78444,8.55600413 171.571664,8.90042931 170.618769,8.90042931 C167.784309,8.90042931 166.100959,7.13808391 166.100959,4.45142124 C166.100959,1.97243745 167.771829,0.000219379097 170.420555,0.000219379097 C171.484303,0.000219379097 172.215493,0.160366119 173.01936,0.653237822 C173.118467,0.715395233 173.180868,0.83897879 173.180868,0.97499383 C173.180868,1.0481202 173.155908,1.14684079 173.105987,1.2331299 L172.833626,1.67700694 C172.747,1.82545346 172.611186,1.88687961 172.462893,1.88687961 C172.375532,1.88687961 172.277159,1.86201664 172.178052,1.81229071 C171.731704,1.57828634 171.187716,1.4181396 170.606289,1.4181396 C168.935418,1.4181396 167.710162,2.52819783 167.710162,4.45142124 C167.710162,6.28762428 168.885498,7.48324035 170.642995,7.48324035" id="Fill-36"></path>
                <path d="M184.541905,0.135576281 C184.789306,0.135576281 185,0.34544895 185,0.591884802 L185,8.30964141 C185,8.55607726 184.789306,8.76521866 184.541905,8.76521866 L184.108771,8.76521866 C183.886331,8.76521866 183.700597,8.65406659 183.55157,8.46905688 L179.022013,2.78640703 L179.022013,8.30964141 C179.022013,8.55607726 178.811319,8.76521866 178.563919,8.76521866 L178.056638,8.76521866 C177.809238,8.76521866 177.598543,8.55607726 177.598543,8.30964141 L177.598543,0.591884802 C177.598543,0.34544895 177.809238,0.135576281 178.056638,0.135576281 L178.490506,0.135576281 C178.713681,0.135576281 178.89868,0.246728357 179.047708,0.431738061 L183.577264,6.13925088 L183.577264,0.591884802 C183.577264,0.34544895 183.787958,0.135576281 184.035359,0.135576281 L184.541905,0.135576281 Z" id="Fill-38"></path>
                <path d="M34.0856086,23.5788653 C34.0856086,23.7543685 33.9358469,23.9035463 33.7596567,23.9035463 L33.3287249,23.9035463 C33.1525347,23.9035463 33.0020389,23.7543685 33.0020389,23.5788653 L33.0020389,18.0885377 C33.0020389,17.9137657 33.1525347,17.7645879 33.3287249,17.7645879 L36.1984227,17.7645879 C36.3746129,17.7645879 36.5243746,17.9137657 36.5243746,18.0885377 L36.5243746,18.4483195 C36.5243746,18.6238227 36.3746129,18.7730005 36.1984227,18.7730005 L34.0856086,18.7730005 L34.0856086,20.5097517 L35.9348715,20.5097517 C36.1110617,20.5097517 36.2600893,20.6589295 36.2600893,20.8337015 L36.2600893,21.1934832 C36.2600893,21.3689865 36.1110617,21.5181643 35.9348715,21.5181643 L34.0856086,21.5181643 L34.0856086,23.5788653 Z" id="Fill-40"></path>
                <path d="M40.0489126,21.3251107 L41.854128,21.3251107 L40.955558,19.1415574 L40.0489126,21.3251107 Z M39.6355998,22.3335233 L39.0894102,23.6578417 C39.0365531,23.8077508 38.8867914,23.9035463 38.7282203,23.9035463 L38.411812,23.9035463 C38.2091933,23.9035463 38.0682412,23.7463246 38.0682412,23.5620462 C38.0682412,23.5269455 38.0763165,23.4823385 38.0946697,23.4391939 L40.401293,17.9920109 C40.4629596,17.8428332 40.6127212,17.7463064 40.7712924,17.7463064 L41.1941489,17.7463064 C41.3519859,17.7463064 41.5017476,17.8428332 41.5634142,17.9920109 L43.8707716,23.4391939 C43.8876565,23.4823385 43.896466,23.5269455 43.896466,23.5620462 C43.896466,23.7463246 43.756248,23.9035463 43.5528952,23.9035463 L43.1748204,23.9035463 C43.0162492,23.9035463 42.8664875,23.8077508 42.8143646,23.6578417 L42.2674408,22.3335233 L39.6355998,22.3335233 Z" id="Fill-42"></path>
                <path d="M46.1814323,22.5005442 C46.2526425,22.4296117 46.3223844,22.4040174 46.4024042,22.4040174 C46.4897651,22.4040174 46.5778602,22.4391181 46.6483363,22.5005442 C47.0447642,22.824494 47.422839,22.9912221 47.7664099,22.9912221 C48.2766274,22.9912221 48.6649799,22.7367424 48.6649799,22.27239 C48.6649799,21.0621486 45.8738336,21.3597729 45.8738336,19.3604981 C45.8738336,18.4398372 46.5954792,17.668354 47.7928385,17.668354 C48.3566471,17.668354 48.7971226,17.7816999 49.2632925,18.0449548 C49.3601971,18.0976058 49.4218636,18.2116829 49.4218636,18.32576 C49.4218636,18.378411 49.4042446,18.431062 49.3778161,18.4749378 L49.2104354,18.7645182 C49.1399593,18.8785954 49.0349793,18.9400215 48.9197216,18.9400215 C48.8668645,18.9400215 48.8147416,18.9305151 48.7618845,18.9041896 C48.4351985,18.7462366 48.1452188,18.6767666 47.8809336,18.6767666 C47.3442876,18.6767666 47.0183357,18.9487967 47.0183357,19.3517229 C47.0183357,20.6241217 49.808748,20.2204642 49.808748,22.2636148 C49.808748,23.2983529 48.9021026,24.000366 47.749525,24.000366 C47.0800023,24.000366 46.5338127,23.8160875 45.9259565,23.2544771 C45.8562145,23.1930509 45.812167,23.0965241 45.812167,23.0007286 C45.812167,22.9305273 45.8385955,22.8595947 45.8907185,22.807675 L46.1814323,22.5005442 Z" id="Fill-44"></path>
                <path d="M57.3575439,23.5788653 C57.3575439,23.7543685 57.2077822,23.9035463 57.0323261,23.9035463 L56.6087355,23.9035463 C56.4332795,23.9035463 56.2835178,23.7543685 56.2835178,23.5788653 L56.2835178,21.2812349 L53.4659429,21.2812349 L53.4659429,23.5788653 C53.4659429,23.7543685 53.3161812,23.9035463 53.139991,23.9035463 L52.7090592,23.9035463 C52.532869,23.9035463 52.3831073,23.7543685 52.3831073,23.5788653 L52.3831073,18.0885377 C52.3831073,17.9137657 52.532869,17.7645879 52.7090592,17.7645879 L53.139991,17.7645879 C53.3161812,17.7645879 53.4659429,17.9137657 53.4659429,18.0885377 L53.4659429,20.2728223 L56.2835178,20.2728223 L56.2835178,18.0885377 C56.2835178,17.9137657 56.4332795,17.7645879 56.6087355,17.7645879 L57.0323261,17.7645879 C57.2077822,17.7645879 57.3575439,17.9137657 57.3575439,18.0885377 L57.3575439,23.5788653 Z" id="Fill-47"></path>
                <path d="M61.6060034,23.5788653 C61.6060034,23.7543685 61.4562417,23.9035463 61.2807857,23.9035463 L60.8491197,23.9035463 C60.6729295,23.9035463 60.5224337,23.7543685 60.5224337,23.5788653 L60.5224337,18.0885377 C60.5224337,17.9137657 60.6729295,17.7645879 60.8491197,17.7645879 L61.2807857,17.7645879 C61.4562417,17.7645879 61.6060034,17.9137657 61.6060034,18.0885377 L61.6060034,23.5788653 Z" id="Fill-49"></path>
                <path d="M67.5163032,22.9911491 C68.810567,22.9911491 69.5850698,22.0441627 69.5850698,20.8339214 C69.5850698,19.5629851 68.6784244,18.6766936 67.5163032,18.6766936 C66.336563,18.6766936 65.455612,19.5629851 65.455612,20.8339214 C65.455612,22.061713 66.3629915,22.9911491 67.5163032,22.9911491 M67.5163032,17.668281 C69.3479471,17.668281 70.730306,18.9223982 70.730306,20.8339214 C70.730306,22.6752432 69.3479471,24.000293 67.5163032,24.000293 C65.6853934,24.000293 64.311844,22.7461758 64.311844,20.8339214 C64.311844,19.0532944 65.6237268,17.668281 67.5163032,17.668281" id="Fill-51"></path>
                <path d="M78.2449651,17.7645148 C78.4211553,17.7645148 78.5701828,17.9136926 78.5701828,18.0884646 L78.5701828,23.5787921 C78.5701828,23.7542954 78.4211553,23.9042045 78.2449651,23.9042045 L77.9366322,23.9042045 C77.7780611,23.9042045 77.6466525,23.8244967 77.5409384,23.6928693 L74.3181261,19.6497125 L74.3181261,23.5787921 C74.3181261,23.7542954 74.1683644,23.9042045 73.9921742,23.9042045 L73.6317184,23.9042045 C73.4555282,23.9042045 73.3050325,23.7542954 73.3050325,23.5787921 L73.3050325,18.0884646 C73.3050325,17.9136926 73.4555282,17.7645148 73.6317184,17.7645148 L73.9400513,17.7645148 C74.0986225,17.7645148 74.230031,17.84276 74.3357451,17.9751188 L77.5578233,22.0358258 L77.5578233,18.0884646 C77.5578233,17.9136926 77.7083191,17.7645148 77.8845093,17.7645148 L78.2449651,17.7645148 Z" id="Fill-54"></path>
                <path d="M87.4868016,18.6764006 C86.3422995,18.6764006 85.4797016,19.501266 85.4797016,20.8336284 C85.4797016,22.114071 86.351109,22.9908562 87.6101347,22.9908562 C88.0234476,22.9908562 88.3670185,22.8775103 88.720133,22.6844567 C88.7898749,22.6500873 88.860351,22.6318057 88.9220176,22.6318057 C89.0365412,22.6318057 89.1422553,22.6756815 89.2039219,22.7809835 L89.3624931,23.0266881 C89.4065406,23.0881142 89.4241596,23.1583155 89.4241596,23.2285168 C89.4241596,23.3243124 89.3801121,23.4208392 89.3008265,23.4742214 C88.6489228,23.9034732 88.0682293,24 87.5132301,24 C85.6294633,24 84.3351995,22.7458828 84.3351995,20.8336284 C84.3351995,19.071283 85.452539,17.667988 87.4868016,17.667988 C88.0329912,17.667988 88.6401133,17.8522665 89.0982078,18.1067462 C89.2039219,18.1593972 89.274398,18.2464176 89.274398,18.3604947 C89.274398,18.4138769 89.256779,18.4753031 89.2215409,18.5367292 L89.0365412,18.860679 C88.9667993,18.9747562 88.8787042,19.0266759 88.7722559,19.0266759 C88.7105893,19.0266759 88.6401133,19.0098568 88.5784467,18.9747562 C88.2356099,18.7992529 87.8920391,18.6764006 87.4868016,18.6764006" id="Fill-56"></path>
                <path d="M94.3319372,22.9911491 C95.626201,22.9911491 96.4007038,22.0441627 96.4007038,20.8339214 C96.4007038,19.5629851 95.4940584,18.6766936 94.3319372,18.6766936 C93.152197,18.6766936 92.271246,19.5629851 92.271246,20.8339214 C92.271246,22.061713 93.1786255,22.9911491 94.3319372,22.9911491 M94.3319372,17.668281 C96.1635811,17.668281 97.54594,18.9223982 97.54594,20.8339214 C97.54594,22.6752432 96.1635811,24.000293 94.3319372,24.000293 C92.5010274,24.000293 91.127478,22.7461758 91.127478,20.8339214 C91.127478,19.0532944 92.4393608,17.668281 94.3319372,17.668281" id="Fill-58"></path>
                <path d="M105.060673,17.7645148 C105.236863,17.7645148 105.38589,17.9136926 105.38589,18.0884646 L105.38589,23.5787921 C105.38589,23.7542954 105.236863,23.9042045 105.060673,23.9042045 L104.75234,23.9042045 C104.593769,23.9042045 104.46236,23.8244967 104.356646,23.6928693 L101.133834,19.6497125 L101.133834,23.5787921 C101.133834,23.7542954 100.984072,23.9042045 100.807882,23.9042045 L100.447426,23.9042045 C100.271236,23.9042045 100.12074,23.7542954 100.12074,23.5787921 L100.12074,18.0884646 C100.12074,17.9136926 100.271236,17.7645148 100.447426,17.7645148 L100.755759,17.7645148 C100.91433,17.7645148 101.045738,17.84276 101.151453,17.9751188 L104.373531,22.0358258 L104.373531,18.0884646 C104.373531,17.9136926 104.524027,17.7645148 104.700217,17.7645148 L105.060673,17.7645148 Z" id="Fill-61"></path>
                <path d="M108.331203,22.5005442 C108.402413,22.4296117 108.472155,22.4040174 108.552175,22.4040174 C108.639536,22.4040174 108.727631,22.4391181 108.798107,22.5005442 C109.194535,22.824494 109.57261,22.9912221 109.916181,22.9912221 C110.426398,22.9912221 110.814751,22.7367424 110.814751,22.27239 C110.814751,21.0621486 108.023605,21.3597729 108.023605,19.3604981 C108.023605,18.4398372 108.74525,17.668354 109.942609,17.668354 C110.506418,17.668354 110.946894,17.7816999 111.413063,18.0449548 C111.509968,18.0976058 111.571635,18.2116829 111.571635,18.32576 C111.571635,18.378411 111.554016,18.431062 111.527587,18.4749378 L111.360206,18.7645182 C111.28973,18.8785954 111.18475,18.9400215 111.069493,18.9400215 C111.016636,18.9400215 110.964513,18.9305151 110.911656,18.9041896 C110.58497,18.7462366 110.29499,18.6767666 110.030705,18.6767666 C109.494059,18.6767666 109.168107,18.9487967 109.168107,19.3517229 C109.168107,20.6241217 111.958519,20.2204642 111.958519,22.2636148 C111.958519,23.2983529 111.051874,24.000366 109.899296,24.000366 C109.229773,24.000366 108.683584,23.8160875 108.075728,23.2544771 C108.005986,23.1930509 107.961938,23.0965241 107.961938,23.0007286 C107.961938,22.9305273 107.988367,22.8595947 108.040489,22.807675 L108.331203,22.5005442 Z" id="Fill-63"></path>
                <path d="M118.442685,18.0886838 C118.442685,17.9139118 118.592447,17.764734 118.768637,17.764734 L119.191493,17.764734 C119.367684,17.764734 119.516711,17.9139118 119.516711,18.0886838 L119.516711,21.3603574 C119.516711,23.2367799 118.364134,24.0002192 117.069136,24.0002192 C115.537015,24.0002192 114.44537,23.0971086 114.44537,21.2989312 L114.44537,18.0886838 C114.44537,17.9139118 114.595132,17.764734 114.771322,17.764734 L115.202988,17.764734 C115.378444,17.764734 115.528206,17.9139118 115.528206,18.0886838 L115.528206,21.070777 C115.528206,22.2195922 116.003919,22.9910753 117.069136,22.9910753 C118.00221,22.9910753 118.442685,22.3336693 118.442685,21.1409783 L118.442685,18.0886838 Z" id="Fill-66"></path>
                <path d="M126.31802,23.5788653 C126.31802,23.7543685 126.168992,23.9035463 125.992802,23.9035463 L122.787609,23.9035463 C122.611418,23.9035463 122.461657,23.7543685 122.461657,23.5788653 L122.461657,18.0885377 C122.461657,17.9137657 122.611418,17.7645879 122.787609,17.7645879 L123.218541,17.7645879 C123.395465,17.7645879 123.545227,17.9137657 123.545227,18.0885377 L123.545227,22.8944025 L125.992802,22.8944025 C126.168992,22.8944025 126.31802,23.0443115 126.31802,23.2198148 L126.31802,23.5788653 Z" id="Fill-69"></path>
                <path d="M129.235876,23.9038388 C129.059686,23.9038388 128.910658,23.754661 128.910658,23.5791578 L128.910658,18.7725618 L127.236852,18.7725618 C127.061396,18.7725618 126.911634,18.623384 126.911634,18.448612 L126.911634,18.0888303 C126.911634,17.9140582 127.061396,17.7641492 127.236852,17.7641492 L131.666567,17.7641492 C131.842023,17.7641492 131.991785,17.9140582 131.991785,18.0888303 L131.991785,18.448612 C131.991785,18.623384 131.842023,18.7725618 131.666567,18.7725618 L129.99276,18.7725618 L129.99276,23.5791578 C129.99276,23.754661 129.842998,23.9038388 129.667542,23.9038388 L129.235876,23.9038388 Z" id="Fill-71"></path>
                <path d="M135.473083,23.5788653 C135.473083,23.7543685 135.323321,23.9035463 135.147865,23.9035463 L134.716199,23.9035463 C134.540009,23.9035463 134.389513,23.7543685 134.389513,23.5788653 L134.389513,18.0885377 C134.389513,17.9137657 134.540009,17.7645879 134.716199,17.7645879 L135.147865,17.7645879 C135.323321,17.7645879 135.473083,17.9137657 135.473083,18.0885377 L135.473083,23.5788653 Z" id="Fill-73"></path>
                <path d="M143.575703,17.7645148 C143.751893,17.7645148 143.90092,17.9136926 143.90092,18.0884646 L143.90092,23.5787921 C143.90092,23.7542954 143.751893,23.9042045 143.575703,23.9042045 L143.26737,23.9042045 C143.108799,23.9042045 142.97739,23.8244967 142.871676,23.6928693 L139.648864,19.6497125 L139.648864,23.5787921 C139.648864,23.7542954 139.499102,23.9042045 139.322912,23.9042045 L138.962456,23.9042045 C138.786266,23.9042045 138.63577,23.7542954 138.63577,23.5787921 L138.63577,18.0884646 C138.63577,17.9136926 138.786266,17.7645148 138.962456,17.7645148 L139.270789,17.7645148 C139.42936,17.7645148 139.560769,17.84276 139.666483,17.9751188 L142.888561,22.0358258 L142.888561,18.0884646 C142.888561,17.9136926 143.039057,17.7645148 143.215247,17.7645148 L143.575703,17.7645148 Z" id="Fill-75"></path>
                <path d="M149.708223,22.9911491 C150.183202,22.9911491 150.75582,22.7900516 150.984868,22.5706725 L150.984868,21.6054045 L149.822746,21.6054045 C149.646556,21.6054045 149.496794,21.4562267 149.496794,21.2814547 L149.496794,20.921673 C149.496794,20.7461697 149.646556,20.5977232 149.822746,20.5977232 L151.672009,20.5977232 C151.847465,20.5977232 151.997227,20.7461697 151.997227,20.921673 L151.997227,22.9041288 C151.997227,23.0884072 151.900322,23.2368537 151.795342,23.3158302 C151.231534,23.7545884 150.368202,24.000293 149.690604,24.000293 C147.67396,24.000293 146.477335,22.7461758 146.477335,20.8339214 C146.477335,19.071576 147.665885,17.668281 149.549652,17.668281 C150.306535,17.668281 150.826296,17.7816269 151.398914,18.1326334 C151.468656,18.1765092 151.513438,18.2642609 151.513438,18.3607877 C151.513438,18.4134387 151.495819,18.48364 151.460581,18.5450661 L151.266772,18.860972 C151.205105,18.9655427 151.108201,19.0101498 151.002487,19.0101498 C150.94082,19.0101498 150.870344,18.9918682 150.799868,18.9567676 C150.48346,18.7907707 150.095107,18.6766936 149.681794,18.6766936 C148.493244,18.6766936 147.621103,19.4657271 147.621103,20.8339214 C147.621103,22.1406895 148.458006,22.9911491 149.708223,22.9911491" id="Fill-77"></path>
            </g>
        </g>
    </g>
</svg>