<?xml version="1.0" encoding="UTF-8"?>
<svg width="140px" height="140px" viewBox="0 0 140 140" version="1.1" xmlns="http://www.w3.org/2000/svg" xmlns:xlink="http://www.w3.org/1999/xlink">
    <title>Group 16</title>
    <defs>
        <polygon id="path-1" points="0 0 140 0 140 140 0 140"></polygon>
    </defs>
    <g id="About-Pg" stroke="none" stroke-width="1" fill="none" fill-rule="evenodd">
        <g id="AboutPage_iPhone12Mini" transform="translate(-118.000000, -203.000000)">
            <g id="Stacked-Group-2" transform="translate(0.000000, 80.000000)">
                <g id="Group-19" transform="translate(16.000000, 123.000000)">
                    <g id="Group-16" transform="translate(102.000000, 0.000000)">
                        <path d="M40.8114599,53.790602 C40.4701624,49.9182756 41.7324334,46.58249 44.460543,44.145732 C46.7065982,42.138812 48.9556805,41.5349197 50.8506005,41.5349197 C51.7201144,41.5349197 52.516223,41.662055 53.2010882,41.8398929 C56.8251983,42.7790285 60.120119,45.8809762 61.3990386,49.5595727 C61.6109306,50.1680055 62.1845525,50.5758976 62.8285529,50.5758976 C63.47331,50.5758976 64.0469319,50.1680055 64.2588239,49.5595727 C65.5884463,45.734922 69.1648806,42.45665 72.9547205,41.5878928 C75.063046,41.1035682 78.1937504,41.1459466 81.1360222,44.0867049 C83.7150507,46.6657333 84.8274837,50.1786001 84.3537537,54.2461699 C83.3381856,62.9693097 75.3142894,72.8268286 62.8285529,80.740995 C49.7828161,72.4870446 41.5742711,62.4569851 40.8114599,53.790602 Z" id="Fill-1" fill="#C8C8C8"></path>
                        <path d="M103.069721,49.2904699 L99.3222591,49.2904699 L99.3222591,79.9883243 C99.3222591,85.8304896 94.5698241,90.5829246 88.7276588,90.5829246 L70.8750005,90.5829246 C68.5086208,90.5829246 66.2565115,91.4774116 64.5333754,93.1006557 L61.6826712,95.7871437 C64.2798618,95.8219545 66.4146737,95.9150356 68.190026,96.06336 C68.4480802,95.8582788 68.769702,95.7311436 69.1253779,95.7311436 C72.2666769,95.7311436 75.2558677,96.9184956 77.5427879,99.0729833 L90.7936058,111.561747 L90.7936058,102.661526 C90.7936058,100.513849 91.7819307,98.5931992 93.3264721,97.328658 C94.5221484,96.3327656 96.0576087,95.7311436 97.7315555,95.7311436 L103.069721,95.7311436 C104.885181,95.7311436 106.552317,95.0879 107.857723,94.0186022 C109.525616,92.629196 110.590373,90.538276 110.590373,88.2029234 L110.637292,56.8580415 C110.637292,52.6852825 107.24248,49.2904699 103.069721,49.2904699" id="Fill-3" fill="#C8C8C8"></path>
                        <g id="Group-7">
                            <mask id="mask-2" fill="white">
                                <use xlink:href="#path-1"></use>
                            </mask>
                            <g id="Clip-6"></g>
                            <path d="M70.0000378,3.78378583 C33.4880181,3.78378583 3.78378583,33.4880181 3.78378583,70.0000378 C3.78378583,106.512058 33.4880181,136.21629 70.0000378,136.21629 C106.512058,136.21629 136.21629,106.512058 136.21629,70.0000378 C136.21629,33.4880181 106.512058,3.78378583 70.0000378,3.78378583 M70.0000378,140.000076 C31.4016386,140.000076 0,108.598437 0,70.0000378 C0,31.4016386 31.4016386,0 70.0000378,0 C108.598437,0 140.000076,31.4016386 140.000076,70.0000378 C140.000076,108.598437 108.598437,140.000076 70.0000378,140.000076" id="Fill-5" fill="#53575A" mask="url(#mask-2)"></path>
                        </g>
                        <path d="M36.9303551,30.9413789 C32.7575961,30.9413789 29.3627834,34.3361915 29.3627834,38.5089505 L29.3627834,79.9883243 C29.3627834,84.1610833 32.7575961,87.555896 36.9303551,87.555896 L42.2685201,87.555896 C46.0681979,87.555896 49.1595509,90.647249 49.1595509,94.4476835 L49.1595509,103.431148 L62.4572878,90.8984924 C64.7434512,88.743248 67.7333988,87.555896 70.8746978,87.555896 L88.7273561,87.555896 C92.9001151,87.555896 96.2949277,84.1610833 96.2949277,79.9883243 L96.2949277,38.5089505 C96.2949277,34.3361915 92.9001151,30.9413789 88.7273561,30.9413789 L36.9303551,30.9413789 Z M47.6452798,108.450718 C47.4432256,108.450718 47.2389012,108.409853 47.0459281,108.32661 C46.4912251,108.086718 46.1325222,107.541096 46.1325222,106.937204 L46.1325222,94.4476835 C46.1325222,92.3174121 44.3987916,90.5829246 42.2685201,90.5829246 L36.9303551,90.5829246 C31.0881898,90.5829246 26.3357548,85.8304896 26.3357548,79.9883243 L26.3357548,38.5089505 C26.3357548,32.6667852 31.0881898,27.9143502 36.9303551,27.9143502 L88.7273561,27.9143502 C94.5695214,27.9143502 99.3219564,32.6667852 99.3219564,38.5089505 L99.3219564,79.9883243 C99.3219564,85.8304896 94.5695214,90.5829246 88.7273561,90.5829246 L70.8746978,90.5829246 C68.5083181,90.5829246 66.2562088,91.4774116 64.5338295,93.1006557 L48.6835506,108.038285 C48.3974964,108.308448 48.0244151,108.450718 47.6452798,108.450718 L47.6452798,108.450718 Z" id="Fill-8" fill="#53575A"></path>
                        <path d="M92.3546445,116.625587 C91.9762659,116.625587 91.6024279,116.484074 91.3163737,116.213155 L75.4668516,101.275525 C73.7437155,99.6522809 71.4916062,98.7585507 69.1252266,98.7585507 C68.2890099,98.7585507 67.6117122,98.0804963 67.6117122,97.2450363 C67.6117122,96.4088197 68.2890099,95.731522 69.1252266,95.731522 C72.2665255,95.731522 75.2557164,96.9181173 77.5426365,99.0733617 L90.8411302,111.606017 L90.8411302,102.622553 C90.8411302,98.822875 93.9317264,95.731522 97.7314042,95.731522 L103.069569,95.731522 C107.242328,95.731522 110.637141,92.3359526 110.637141,88.1639504 L110.637141,56.8576632 C110.637141,52.6856609 107.242328,49.2900915 103.069569,49.2900915 C102.234109,49.2900915 101.556055,48.6127938 101.556055,47.7765772 C101.556055,46.9411173 102.234109,46.2630628 103.069569,46.2630628 C108.911735,46.2630628 113.66417,51.0162546 113.66417,56.8576632 L113.66417,88.1639504 C113.66417,94.0053589 108.911735,98.7585507 103.069569,98.7585507 L97.7314042,98.7585507 C95.6011328,98.7585507 93.8681588,100.492281 93.8681588,102.622553 L93.8681588,115.112073 C93.8681588,115.715965 93.5086992,116.262344 92.9539962,116.501479 C92.7610231,116.584722 92.5574554,116.625587 92.3546445,116.625587" id="Fill-10" fill="#53575A"></path>
                        <path d="M50.8505248,41.5352225 C48.9556048,41.5352225 46.7065225,42.1391147 44.4604673,44.1452779 C41.7323577,46.5827927 40.4700867,49.9178216 40.8113842,53.790148 C41.5741954,62.4565311 49.7827404,72.4865905 62.8284772,80.7412977 C75.3142137,72.8271313 83.3381099,62.9688557 84.353678,54.2464726 C84.827408,50.1789028 83.714975,46.6652793 81.1367033,44.0870076 C78.1936747,41.1454925 75.0629703,41.1038709 72.9546448,41.5874387 C69.164805,42.4569527 65.5891273,45.7352247 64.2587482,49.5598754 C64.0468562,50.1675514 63.4732343,50.5754436 62.829234,50.5754436 C62.1852336,50.5754436 61.6108549,50.1675514 61.3989629,49.5598754 C60.1200433,45.8805221 56.8258794,42.7793312 53.2010125,41.8394388 C52.5161473,41.6623577 51.7200388,41.5352225 50.8505248,41.5352225 M62.0331254,83.8137318 C47.7183069,74.9679973 38.6576533,63.8436669 37.7957069,54.0557698 C37.3681391,49.1943617 38.9747346,44.9875486 42.4437094,41.888628 C45.779495,38.9070048 49.8697675,37.8498151 53.9607967,38.9092751 C57.5599338,39.8423567 60.8018815,42.337385 62.8307475,45.5914409 C64.9769108,42.1542498 68.4875073,39.5063565 72.2781039,38.6375993 C76.3123764,37.7105717 80.2172434,38.8880859 83.2768126,41.9468983 C86.5323819,45.2024677 87.9444908,49.5765241 87.3602742,54.5968511 C86.2001655,64.560316 77.5489176,75.2094028 63.6245857,83.8137318 C63.3809099,83.9643265 63.1046936,84.0400022 62.829234,84.0400022 C62.5530176,84.0400022 62.277558,83.9643265 62.0331254,83.8137318 Z" id="Fill-12" fill="#53575A"></path>
                        <path d="M79.6072971,55.3925813 C79.5058916,55.3925813 79.4037294,55.3789597 79.3015672,55.3509596 C78.697675,55.1829596 78.3450261,54.5571214 78.5130262,53.9524724 C79.0563779,52.0038227 78.4865397,50.0839298 76.9889173,48.8171183 C75.6487004,47.6827393 73.9422129,47.3883608 72.5354014,48.048253 C71.969347,48.3153883 71.2920493,48.0694422 71.0256708,47.5018743 C70.7592923,46.9343065 71.0037249,46.2585223 71.5712927,45.9921438 C73.792375,44.9516027 76.428917,45.3700894 78.4547559,47.0841444 C80.6160544,48.9124697 81.4764873,51.7783091 80.7000544,54.5624187 C80.5600544,55.0641487 80.1037298,55.3925813 79.6072971,55.3925813" id="Fill-14" fill="#53575A"></path>
                    </g>
                </g>
            </g>
        </g>
    </g>
</svg>